<svg width="373" height="107" viewBox="0 0 373 107" fill="none" xmlns="http://www.w3.org/2000/svg">
<rect width="382" height="107" rx="20" fill="white" fill-opacity="0.44"/>
<mask id="mask0_104_5" style="mask-type:alpha" maskUnits="userSpaceOnUse" x="0" y="0" width="382" height="107">
<rect width="382" height="107" rx="20" fill="white"/>
</mask>
<g mask="url(#mask0_104_5)">
<path opacity="0.3" d="M24 -34C24 -34 27.1274 46.3277 53 82.5C78.8726 118.672 156.502 151.25 156.502 151.25H-108.502L24 -34Z" fill="#211EC4"/>
<path opacity="0.2" d="M40.5 -126C40.5 -126 45.1379 -6.75513 83.5069 46.942C121.876 100.639 237 149 237 149H-156L40.5 -126Z" fill="#211EC4"/>
<path d="M400.17 23L515.564 119.233H284.776L400.17 23Z" fill="url(#paint0_linear_104_5)"/>
<path d="M327.095 63.7599L390.592 116.635H263.598L327.095 63.7599Z" fill="url(#paint1_linear_104_5)"/>
<path d="M288.32 83.5L351.817 136.375H224.823L288.32 83.5Z" fill="white" fill-opacity="0.43"/>
</g>
<defs>
<linearGradient id="paint0_linear_104_5" x1="400.17" y1="23" x2="400.17" y2="151.31" gradientUnits="userSpaceOnUse">
<stop stop-color="#A30092"/>
<stop offset="1" stop-color="#8376AA" stop-opacity="0.62"/>
</linearGradient>
<linearGradient id="paint1_linear_104_5" x1="327.095" y1="63.7599" x2="327.095" y2="134.26" gradientUnits="userSpaceOnUse">
<stop stop-color="#A30092"/>
<stop offset="1" stop-color="#8376AA" stop-opacity="0.62"/>
</linearGradient>
</defs>
</svg>
