<svg width="411" height="208" viewBox="0 0 411 208" fill="none" xmlns="http://www.w3.org/2000/svg">
<mask id="mask0_3222_13792" style="mask-type:alpha" maskUnits="userSpaceOnUse" x="0" y="0" width="417" height="208">
<rect width="417" height="208" fill="#D9D9D9"/>
</mask>
<g mask="url(#mask0_3222_13792)">
<path d="M103.443 99.0735H94.5341C84.2119 99.0735 88.6653 96.1367 91.2766 95.5672C85.4396 93.5738 89.7405 89.8186 92.6908 91.3848C90.8476 84.5505 97.1454 85.9743 98.3742 89.8186C100.832 85.8319 105.133 87.8253 102.522 92.0967C106.976 90.2458 106.976 93.9478 105.133 95.0868C109.587 95.7987 107.098 97.1334 104.64 97.1334C107.559 98.6996 105.408 99.0735 103.443 99.0735Z" fill="#EDEEF2"/>
<path d="M108.384 98.6577H103.835C98.5642 98.6577 100.838 97.0914 102.172 96.7876C99.1911 95.7245 101.387 93.7217 102.894 94.557C101.953 90.912 105.168 91.6714 105.796 93.7217C107.051 91.5955 109.247 92.6586 107.914 94.9367C110.188 93.9495 110.188 95.9239 109.247 96.5314C111.522 96.9111 110.251 97.6229 108.996 97.6229C110.486 98.4582 109.388 98.6577 108.384 98.6577Z" fill="#DFE0E6"/>
<path d="M88.0463 88.5377C87.8047 88.1952 87.4602 87.9028 87.0154 87.8088C87.7637 87.4558 88.1465 87.5134 88.6042 87.6566C89.7104 88.0026 89.7657 89.0868 89.2611 89.1661C88.7564 89.2454 88.2966 88.8926 88.0463 88.5377Z" fill="#E5E6ED"/>
<path d="M87.5804 87.7674C88.5439 87.7512 89.3451 88.6002 89.7012 89.0408L89.6157 89.1157C88.956 88.1483 88.1035 87.7634 87.5804 87.7674C87.5637 87.7677 87.5471 87.7682 87.5303 87.769C87.5467 87.7681 87.5633 87.7676 87.5804 87.7674Z" fill="#727785"/>
<path d="M88.4194 87.6792C88.6278 87.7734 88.7136 88.0368 88.7454 88.1674L88.7194 88.1748C88.676 87.9004 88.5321 87.7314 88.4194 87.6792C88.4158 87.6776 88.4122 87.676 88.4085 87.6745C88.4121 87.6759 88.4157 87.6775 88.4194 87.6792Z" fill="#727785"/>
<path d="M88.1181 88.0077C88.229 88.068 88.3665 88.0228 88.431 87.9957L88.425 87.9822C88.2977 88.0491 88.1786 88.0399 88.1181 88.0077C88.1162 88.0067 88.1143 88.0056 88.1124 88.0045C88.1142 88.0056 88.1161 88.0067 88.1181 88.0077Z" fill="#727785"/>
<path d="M88.9101 87.8913C89.0872 88.0359 89.1023 88.3125 89.0994 88.4469L89.0724 88.4474C89.101 88.171 89.0055 87.9707 88.9101 87.8913C88.907 87.8888 88.9039 87.8863 88.9008 87.8839C88.9039 87.8862 88.907 87.8887 88.9101 87.8913Z" fill="#727785"/>
<path d="M88.3355 88.3387C88.5352 88.45 88.7979 88.3622 88.9218 88.3098L88.9123 88.2846C88.6659 88.4131 88.4445 88.3981 88.3355 88.3387C88.332 88.3368 88.3286 88.3348 88.3252 88.3328C88.3285 88.3348 88.3319 88.3368 88.3355 88.3387Z" fill="#727785"/>
<path d="M88.5289 88.7291C88.8129 88.8944 89.1727 88.7883 89.3417 88.7233L89.327 88.6879C88.9922 88.851 88.6838 88.8175 88.5289 88.7291C88.524 88.7263 88.5191 88.7234 88.5143 88.7203C88.519 88.7233 88.5239 88.7263 88.5289 88.7291Z" fill="#727785"/>
<path d="M108.806 91.4489C109.048 91.1064 109.392 90.814 109.837 90.72C109.089 90.367 108.706 90.4246 108.248 90.5678C107.142 90.9138 107.087 91.998 107.591 92.0773C108.096 92.1566 108.556 91.8038 108.806 91.4489Z" fill="#E5E6ED"/>
<path d="M109.272 90.6786C108.308 90.6623 107.507 91.5113 107.151 91.952L107.237 92.0268C107.896 91.0594 108.749 90.6745 109.272 90.6786C109.289 90.6788 109.305 90.6794 109.322 90.6802C109.306 90.6792 109.289 90.6787 109.272 90.6786Z" fill="#727785"/>
<path d="M108.433 90.5902C108.225 90.6844 108.139 90.9478 108.107 91.0784L108.133 91.0858C108.176 90.8114 108.32 90.6424 108.433 90.5902C108.437 90.5886 108.44 90.587 108.444 90.5855C108.44 90.587 108.437 90.5885 108.433 90.5902Z" fill="#727785"/>
<path d="M108.734 90.9189C108.623 90.9792 108.486 90.934 108.421 90.9069L108.427 90.8934C108.555 90.9603 108.674 90.9511 108.734 90.9189C108.736 90.9179 108.738 90.9168 108.74 90.9157C108.738 90.9168 108.736 90.9179 108.734 90.9189Z" fill="#727785"/>
<path d="M107.942 90.8025C107.765 90.9471 107.75 91.2237 107.753 91.3581L107.78 91.3586C107.751 91.0822 107.847 90.8819 107.942 90.8025C107.945 90.8 107.948 90.7975 107.952 90.7951C107.948 90.7974 107.945 90.7999 107.942 90.8025Z" fill="#727785"/>
<path d="M108.517 91.2498C108.317 91.3612 108.054 91.2733 107.931 91.221L107.94 91.1957C108.186 91.3242 108.408 91.3093 108.517 91.2498C108.52 91.2479 108.524 91.2459 108.527 91.2439C108.524 91.2459 108.52 91.2479 108.517 91.2498Z" fill="#727785"/>
<path d="M108.323 91.6403C108.04 91.8055 107.68 91.6994 107.511 91.6344L107.525 91.599C107.86 91.7621 108.169 91.7286 108.323 91.6403C108.328 91.6374 108.333 91.6345 108.338 91.6315C108.333 91.6345 108.328 91.6374 108.323 91.6403Z" fill="#727785"/>
<path d="M99.5185 86.5653C99.5477 86.1472 99.6909 85.7186 100.023 85.4077C99.1997 85.4935 98.9021 85.7411 98.5848 86.1007C97.8179 86.9698 98.3323 87.9258 98.805 87.7322C99.2777 87.5385 99.4883 86.9986 99.5185 86.5653Z" fill="#E5E6ED"/>
<path d="M99.518 85.6651C98.6854 86.1504 98.44 87.2917 98.3637 87.8531L98.4757 87.8728C98.5387 86.7036 99.0684 85.9327 99.518 85.6651C99.5323 85.6567 99.5469 85.6485 99.5616 85.6406C99.5472 85.6482 99.5326 85.6564 99.518 85.6651Z" fill="#727785"/>
<path d="M98.7546 86.0243C98.6252 86.2128 98.6882 86.4826 98.7287 86.6108L98.7547 86.6036C98.6497 86.3464 98.6853 86.1273 98.7546 86.0243C98.7568 86.0211 98.7591 86.0179 98.7615 86.0146C98.7591 86.0178 98.7569 86.021 98.7546 86.0243Z" fill="#727785"/>
<path d="M99.1825 86.1492C99.1188 86.2582 98.9778 86.2908 98.9086 86.301L98.9068 86.2864C99.0503 86.2776 99.1474 86.2081 99.1825 86.1492C99.1836 86.1473 99.1846 86.1454 99.1857 86.1435C99.1847 86.1454 99.1836 86.1473 99.1825 86.1492Z" fill="#727785"/>
<path d="M98.4448 86.4599C98.3683 86.6754 98.4987 86.9198 98.5708 87.0332L98.5941 87.0197C98.4265 86.7981 98.4044 86.5773 98.4448 86.4599C98.4461 86.4562 98.4475 86.4525 98.449 86.4488C98.4475 86.4524 98.4461 86.4561 98.4448 86.4599Z" fill="#727785"/>
<path d="M99.168 86.545C99.0549 86.7437 98.7847 86.8046 98.6516 86.824L98.6467 86.7975C98.924 86.7798 99.1056 86.6523 99.168 86.545C99.17 86.5415 99.1719 86.5381 99.1738 86.5345C99.172 86.538 99.1701 86.5415 99.168 86.545Z" fill="#727785"/>
<path d="M99.2049 86.9791C99.0477 87.2675 98.685 87.3632 98.5067 87.3952L98.5009 87.3573C98.8718 87.3234 99.1183 87.1349 99.2049 86.9791C99.2076 86.9741 99.2103 86.9691 99.2129 86.964C99.2104 86.969 99.2078 86.974 99.2049 86.9791Z" fill="#727785"/>
<path d="M90.7485 86.4843C90.7344 86.2381 90.6533 85.9849 90.4603 85.7996C90.9439 85.856 91.1172 86.0039 91.3012 86.2177C91.7461 86.7347 91.4365 87.2934 91.1598 87.176C90.8831 87.0586 90.7631 86.7394 90.7485 86.4843Z" fill="#E5E6ED"/>
<path d="M90.7554 85.9546C91.2417 86.2462 91.3777 86.9194 91.4185 87.2503L91.3525 87.2611C91.324 86.5727 91.0179 86.1153 90.7554 85.9546C90.747 85.9495 90.7385 85.9446 90.7299 85.9398C90.7383 85.9444 90.7468 85.9493 90.7554 85.9546Z" fill="#727785"/>
<path d="M91.2019 86.1716C91.2767 86.2834 91.2376 86.4417 91.2128 86.5168L91.1976 86.5124C91.2612 86.3618 91.2419 86.2327 91.2019 86.1716C91.2006 86.1697 91.1993 86.1677 91.1979 86.1658C91.1993 86.1677 91.2006 86.1696 91.2019 86.1716Z" fill="#727785"/>
<path d="M90.9492 86.242C90.9859 86.3066 91.0686 86.3268 91.1092 86.3333L91.1104 86.3248C91.0261 86.3185 90.9694 86.2769 90.9492 86.242C90.9486 86.2409 90.948 86.2398 90.9474 86.2386C90.948 86.2398 90.9486 86.2409 90.9492 86.242Z" fill="#727785"/>
<path d="M91.381 86.4302C91.4244 86.5576 91.3459 86.7004 91.3026 86.7666L91.289 86.7585C91.3893 86.6293 91.4039 86.4996 91.381 86.4302C91.3802 86.428 91.3794 86.4258 91.3786 86.4236C91.3794 86.4258 91.3802 86.428 91.381 86.4302Z" fill="#727785"/>
<path d="M90.9548 86.4749C91.02 86.5926 91.1785 86.6304 91.2566 86.6428L91.2597 86.6273C91.0967 86.6148 90.9908 86.5384 90.9548 86.4749C90.9537 86.4728 90.9526 86.4708 90.9515 86.4687C90.9526 86.4707 90.9537 86.4728 90.9548 86.4749Z" fill="#727785"/>
<path d="M90.93 86.73C91.0204 86.9009 91.2331 86.9598 91.3377 86.9799L91.3414 86.9577C91.1235 86.935 90.9798 86.8223 90.93 86.73C90.9284 86.7271 90.9269 86.7241 90.9254 86.7211C90.9268 86.724 90.9283 86.727 90.93 86.73Z" fill="#727785"/>
<path d="M106.104 89.3955C106.118 89.1493 106.199 88.8961 106.392 88.7108C105.908 88.7672 105.735 88.9151 105.551 89.1289C105.106 89.6459 105.416 90.2046 105.693 90.0872C105.969 89.9698 106.089 89.6506 106.104 89.3955Z" fill="#E5E6ED"/>
<path d="M106.097 88.8658C105.611 89.1574 105.475 89.8306 105.434 90.1615L105.5 90.1723C105.528 89.4839 105.834 89.0265 106.097 88.8658C106.105 88.8607 106.114 88.8558 106.122 88.851C106.114 88.8556 106.106 88.8605 106.097 88.8658Z" fill="#727785"/>
<path d="M105.65 89.0828C105.576 89.1946 105.615 89.3529 105.64 89.428L105.655 89.4236C105.591 89.273 105.61 89.1439 105.65 89.0828C105.652 89.0808 105.653 89.0789 105.654 89.077C105.653 89.0789 105.652 89.0808 105.65 89.0828Z" fill="#727785"/>
<path d="M105.903 89.1532C105.866 89.2178 105.784 89.238 105.743 89.2445L105.742 89.2359C105.826 89.2297 105.883 89.188 105.903 89.1532C105.904 89.152 105.904 89.1509 105.905 89.1498C105.904 89.1509 105.904 89.152 105.903 89.1532Z" fill="#727785"/>
<path d="M105.471 89.3414C105.428 89.4687 105.506 89.6115 105.55 89.6777L105.563 89.6696C105.463 89.5405 105.448 89.4107 105.471 89.3414C105.472 89.3392 105.473 89.337 105.474 89.3348C105.473 89.3369 105.472 89.3391 105.471 89.3414Z" fill="#727785"/>
<path d="M105.898 89.386C105.832 89.5037 105.674 89.5415 105.596 89.5539L105.593 89.5384C105.756 89.5259 105.862 89.4496 105.898 89.386C105.899 89.384 105.9 89.3819 105.901 89.3798C105.9 89.3819 105.899 89.3839 105.898 89.386Z" fill="#727785"/>
<path d="M105.922 89.6411C105.832 89.812 105.619 89.8709 105.515 89.8911L105.511 89.8688C105.729 89.8461 105.873 89.7334 105.922 89.6411C105.924 89.6382 105.925 89.6352 105.927 89.6322C105.926 89.6352 105.924 89.6381 105.922 89.6411Z" fill="#727785"/>
<path d="M137.858 99.0735H128.949C118.627 99.0735 123.08 96.1367 125.691 95.5672C119.854 93.5738 124.155 89.8186 127.106 91.3848C125.262 84.5505 131.56 85.9743 132.789 89.8186C135.247 85.8319 139.548 87.8253 136.936 92.0967C141.391 90.2458 141.391 93.9478 139.548 95.0868C144.002 95.7987 141.512 97.1334 139.055 97.1334C141.973 98.6996 139.823 99.0735 137.858 99.0735Z" fill="#EDEEF2"/>
<path d="M142.799 98.6577H138.25C132.979 98.6577 135.253 97.0914 136.586 96.7876C133.606 95.7245 135.802 93.7217 137.309 94.557C136.367 90.912 139.583 91.6714 140.211 93.7217C141.466 91.5955 143.662 92.6586 142.329 94.9367C144.603 93.9495 144.603 95.9239 143.662 96.5314C145.937 96.9111 144.665 97.6229 143.41 97.6229C144.901 98.4582 143.803 98.6577 142.799 98.6577Z" fill="#DFE0E6"/>
<path d="M122.461 88.5377C122.219 88.1952 121.875 87.9028 121.43 87.8088C122.178 87.4558 122.561 87.5134 123.019 87.6566C124.125 88.0026 124.18 89.0868 123.676 89.1661C123.171 89.2454 122.711 88.8926 122.461 88.5377Z" fill="#E5E6ED"/>
<path d="M121.995 87.7674C122.959 87.7512 123.76 88.6002 124.116 89.0408L124.03 89.1157C123.371 88.1483 122.518 87.7634 121.995 87.7674C121.978 87.7677 121.962 87.7682 121.945 87.769C121.961 87.7681 121.978 87.7676 121.995 87.7674Z" fill="#727785"/>
<path d="M122.834 87.6792C123.043 87.7734 123.128 88.0368 123.16 88.1674L123.134 88.1748C123.091 87.9004 122.947 87.7314 122.834 87.6792C122.831 87.6776 122.827 87.676 122.823 87.6745C122.827 87.6759 122.831 87.6775 122.834 87.6792Z" fill="#727785"/>
<path d="M122.533 88.0077C122.644 88.068 122.781 88.0228 122.846 87.9957L122.84 87.9822C122.712 88.0491 122.593 88.0399 122.533 88.0077C122.531 88.0067 122.529 88.0056 122.527 88.0045C122.529 88.0056 122.531 88.0067 122.533 88.0077Z" fill="#727785"/>
<path d="M123.325 87.8913C123.502 88.0359 123.517 88.3125 123.514 88.4469L123.487 88.4474C123.516 88.171 123.42 87.9707 123.325 87.8913C123.322 87.8888 123.319 87.8863 123.316 87.8839C123.319 87.8862 123.322 87.8887 123.325 87.8913Z" fill="#727785"/>
<path d="M122.75 88.3387C122.95 88.45 123.213 88.3622 123.337 88.3098L123.327 88.2846C123.081 88.4131 122.859 88.3981 122.75 88.3387C122.747 88.3368 122.743 88.3348 122.74 88.3328C122.743 88.3348 122.747 88.3368 122.75 88.3387Z" fill="#727785"/>
<path d="M122.944 88.7291C123.228 88.8944 123.587 88.7883 123.756 88.7233L123.742 88.6879C123.407 88.851 123.099 88.8175 122.944 88.7291C122.939 88.7263 122.934 88.7234 122.929 88.7203C122.934 88.7233 122.939 88.7263 122.944 88.7291Z" fill="#727785"/>
<path d="M143.221 91.4489C143.462 91.1064 143.807 90.814 144.252 90.72C143.503 90.367 143.121 90.4246 142.663 90.5678C141.557 90.9138 141.501 91.998 142.006 92.0773C142.511 92.1566 142.971 91.8038 143.221 91.4489Z" fill="#E5E6ED"/>
<path d="M143.687 90.6786C142.723 90.6623 141.922 91.5113 141.566 91.952L141.651 92.0268C142.311 91.0594 143.164 90.6745 143.687 90.6786C143.703 90.6788 143.72 90.6794 143.737 90.6802C143.72 90.6792 143.704 90.6787 143.687 90.6786Z" fill="#727785"/>
<path d="M142.848 90.5902C142.639 90.6844 142.553 90.9478 142.522 91.0784L142.548 91.0858C142.591 90.8114 142.735 90.6424 142.848 90.5902C142.851 90.5886 142.855 90.587 142.859 90.5855C142.855 90.587 142.851 90.5885 142.848 90.5902Z" fill="#727785"/>
<path d="M143.149 90.9189C143.038 90.9792 142.901 90.934 142.836 90.9069L142.842 90.8934C142.969 90.9603 143.088 90.9511 143.149 90.9189C143.151 90.9179 143.153 90.9168 143.155 90.9157C143.153 90.9168 143.151 90.9179 143.149 90.9189Z" fill="#727785"/>
<path d="M142.357 90.8025C142.18 90.9471 142.165 91.2237 142.168 91.3581L142.195 91.3586C142.166 91.0822 142.262 90.8819 142.357 90.8025C142.36 90.8 142.363 90.7975 142.366 90.7951C142.363 90.7974 142.36 90.7999 142.357 90.8025Z" fill="#727785"/>
<path d="M142.932 91.2498C142.732 91.3612 142.469 91.2733 142.345 91.221L142.355 91.1957C142.601 91.3242 142.823 91.3093 142.932 91.2498C142.935 91.2479 142.938 91.2459 142.942 91.2439C142.939 91.2459 142.935 91.2479 142.932 91.2498Z" fill="#727785"/>
<path d="M142.738 91.6403C142.454 91.8055 142.094 91.6994 141.925 91.6344L141.94 91.599C142.275 91.7621 142.583 91.7286 142.738 91.6403C142.743 91.6374 142.748 91.6345 142.753 91.6315C142.748 91.6345 142.743 91.6374 142.738 91.6403Z" fill="#727785"/>
<path d="M133.933 86.5653C133.962 86.1472 134.106 85.7186 134.437 85.4077C133.614 85.4935 133.317 85.7411 133 86.1007C132.233 86.9698 132.747 87.9258 133.22 87.7322C133.693 87.5385 133.903 86.9986 133.933 86.5653Z" fill="#E5E6ED"/>
<path d="M133.933 85.6651C133.1 86.1504 132.855 87.2917 132.778 87.8531L132.89 87.8728C132.953 86.7036 133.483 85.9327 133.933 85.6651C133.947 85.6567 133.962 85.6485 133.976 85.6406C133.962 85.6482 133.947 85.6564 133.933 85.6651Z" fill="#727785"/>
<path d="M133.169 86.0243C133.04 86.2128 133.103 86.4826 133.143 86.6108L133.169 86.6036C133.064 86.3464 133.1 86.1273 133.169 86.0243C133.172 86.0211 133.174 86.0179 133.176 86.0146C133.174 86.0178 133.172 86.021 133.169 86.0243Z" fill="#727785"/>
<path d="M133.597 86.1492C133.534 86.2582 133.393 86.2908 133.323 86.301L133.322 86.2864C133.465 86.2776 133.562 86.2081 133.597 86.1492C133.598 86.1473 133.599 86.1454 133.6 86.1435C133.599 86.1454 133.598 86.1473 133.597 86.1492Z" fill="#727785"/>
<path d="M132.86 86.4599C132.783 86.6754 132.913 86.9198 132.986 87.0332L133.009 87.0197C132.841 86.7981 132.819 86.5773 132.86 86.4599C132.861 86.4562 132.862 86.4525 132.864 86.4488C132.862 86.4524 132.861 86.4561 132.86 86.4599Z" fill="#727785"/>
<path d="M133.583 86.545C133.47 86.7437 133.199 86.8046 133.066 86.824L133.061 86.7975C133.339 86.7798 133.52 86.6523 133.583 86.545C133.585 86.5415 133.587 86.5381 133.589 86.5345C133.587 86.538 133.585 86.5415 133.583 86.545Z" fill="#727785"/>
<path d="M133.62 86.9791C133.462 87.2675 133.1 87.3632 132.921 87.3952L132.916 87.3573C133.287 87.3234 133.533 87.1349 133.62 86.9791C133.622 86.9741 133.625 86.9691 133.628 86.964C133.625 86.969 133.623 86.974 133.62 86.9791Z" fill="#727785"/>
<path d="M125.163 86.4843C125.149 86.2381 125.068 85.9849 124.875 85.7996C125.359 85.856 125.532 86.0039 125.716 86.2177C126.161 86.7347 125.851 87.2934 125.575 87.176C125.298 87.0586 125.178 86.7394 125.163 86.4843Z" fill="#E5E6ED"/>
<path d="M125.17 85.9546C125.656 86.2462 125.792 86.9194 125.833 87.2503L125.767 87.2611C125.739 86.5727 125.433 86.1153 125.17 85.9546C125.162 85.9495 125.153 85.9446 125.145 85.9398C125.153 85.9444 125.162 85.9493 125.17 85.9546Z" fill="#727785"/>
<path d="M125.617 86.1716C125.691 86.2834 125.652 86.4417 125.628 86.5168L125.612 86.5124C125.676 86.3618 125.657 86.2327 125.617 86.1716C125.615 86.1697 125.614 86.1677 125.613 86.1658C125.614 86.1677 125.615 86.1696 125.617 86.1716Z" fill="#727785"/>
<path d="M125.364 86.242C125.401 86.3066 125.483 86.3268 125.524 86.3333L125.525 86.3248C125.441 86.3185 125.384 86.2769 125.364 86.242C125.363 86.2409 125.363 86.2398 125.362 86.2386C125.363 86.2398 125.363 86.2409 125.364 86.242Z" fill="#727785"/>
<path d="M125.796 86.4302C125.839 86.5576 125.761 86.7004 125.717 86.7666L125.704 86.7585C125.804 86.6293 125.819 86.4996 125.796 86.4302C125.795 86.428 125.794 86.4258 125.793 86.4236C125.794 86.4258 125.795 86.428 125.796 86.4302Z" fill="#727785"/>
<path d="M125.37 86.4749C125.435 86.5926 125.593 86.6304 125.671 86.6428L125.674 86.6273C125.511 86.6148 125.406 86.5384 125.37 86.4749C125.368 86.4728 125.367 86.4708 125.366 86.4687C125.367 86.4707 125.368 86.4728 125.37 86.4749Z" fill="#727785"/>
<path d="M125.345 86.73C125.435 86.9009 125.648 86.9598 125.752 86.9799L125.756 86.9577C125.538 86.935 125.395 86.8223 125.345 86.73C125.343 86.7271 125.342 86.7241 125.34 86.7211C125.342 86.724 125.343 86.727 125.345 86.73Z" fill="#727785"/>
<path d="M140.519 89.3955C140.533 89.1493 140.614 88.8961 140.807 88.7108C140.323 88.7672 140.15 88.9151 139.966 89.1289C139.521 89.6459 139.831 90.2046 140.107 90.0872C140.384 89.9698 140.504 89.6506 140.519 89.3955Z" fill="#E5E6ED"/>
<path d="M140.512 88.8658C140.025 89.1574 139.889 89.8306 139.849 90.1615L139.915 90.1723C139.943 89.4839 140.249 89.0265 140.512 88.8658C140.52 88.8607 140.529 88.8558 140.537 88.851C140.529 88.8556 140.52 88.8605 140.512 88.8658Z" fill="#727785"/>
<path d="M140.065 89.0828C139.99 89.1946 140.029 89.3529 140.054 89.428L140.07 89.4236C140.006 89.273 140.025 89.1439 140.065 89.0828C140.066 89.0808 140.068 89.0789 140.069 89.077C140.068 89.0789 140.067 89.0808 140.065 89.0828Z" fill="#727785"/>
<path d="M140.318 89.1532C140.281 89.2178 140.198 89.238 140.158 89.2445L140.157 89.2359C140.241 89.2297 140.298 89.188 140.318 89.1532C140.318 89.152 140.319 89.1509 140.32 89.1498C140.319 89.1509 140.319 89.152 140.318 89.1532Z" fill="#727785"/>
<path d="M139.886 89.3414C139.843 89.4687 139.921 89.6115 139.964 89.6777L139.978 89.6696C139.878 89.5405 139.863 89.4107 139.886 89.3414C139.887 89.3392 139.888 89.337 139.888 89.3348C139.888 89.3369 139.887 89.3391 139.886 89.3414Z" fill="#727785"/>
<path d="M140.312 89.386C140.247 89.5037 140.089 89.5415 140.01 89.5539L140.007 89.5384C140.17 89.5259 140.276 89.4496 140.312 89.386C140.313 89.384 140.314 89.3819 140.316 89.3798C140.315 89.3819 140.313 89.3839 140.312 89.386Z" fill="#727785"/>
<path d="M140.337 89.6411C140.247 89.812 140.034 89.8709 139.929 89.8911L139.926 89.8688C140.144 89.8461 140.287 89.7334 140.337 89.6411C140.339 89.6382 140.34 89.6352 140.342 89.6322C140.34 89.6352 140.339 89.6381 140.337 89.6411Z" fill="#727785"/>
<path fill-rule="evenodd" clip-rule="evenodd" d="M184.658 176.861C200.01 158.588 209.256 135.013 209.256 109.279C209.256 51.2186 162.189 4.15112 104.128 4.15112C46.0674 4.15112 -1 51.2186 -1 109.279C-1 135.013 8.24644 158.588 23.5982 176.861H184.658Z" fill="#F0F3FD"/>
<g opacity="0.15">
<path fill-rule="evenodd" clip-rule="evenodd" d="M145.959 79.9909C145.795 80.1855 145.689 80.4218 145.652 80.6734L142.336 103.245C142.246 103.86 142.58 104.458 143.151 104.703L145.313 105.629C145.475 105.699 145.64 105.734 145.801 105.741C146.033 105.75 146.262 105.914 146.262 106.146V113.288C146.262 113.553 146.477 113.768 146.742 113.768C147.008 113.768 147.222 113.553 147.222 113.288V104.381C147.222 104.377 147.222 104.374 147.222 104.37L147.222 79.4278C147.222 79.1083 146.824 78.9628 146.618 79.2074L145.959 79.9909Z" fill="#A4A4A4"/>
<path fill-rule="evenodd" clip-rule="evenodd" d="M145.959 79.5108C145.795 79.7054 145.689 79.9418 145.652 80.1933L142.336 102.765C142.246 103.38 142.58 103.978 143.151 104.223L145.313 105.149C145.475 105.219 145.64 105.254 145.801 105.261C146.033 105.27 146.262 105.434 146.262 105.666V112.808C146.262 113.073 146.477 113.288 146.742 113.288C147.008 113.288 147.222 113.073 147.222 112.808V103.901C147.222 103.897 147.222 103.894 147.222 103.89L147.222 78.9477C147.222 78.6282 146.824 78.4828 146.618 78.7273L145.959 79.5108Z" fill="#C4C4C4"/>
<path fill-rule="evenodd" clip-rule="evenodd" d="M118.554 130.31C118.805 130.354 119.063 130.328 119.299 130.235L140.505 121.821C141.082 121.592 141.433 121.002 141.359 120.385L141.081 118.05C141.06 117.875 141.009 117.715 140.933 117.572C140.825 117.367 140.853 117.086 141.053 116.97L147.238 113.399C147.468 113.266 147.547 112.973 147.414 112.743C147.282 112.514 146.988 112.435 146.758 112.568L135.119 119.287C135.118 119.288 135.117 119.288 135.116 119.289L117.435 129.497C117.158 129.657 117.232 130.075 117.546 130.131L118.554 130.31Z" fill="#A4A4A4"/>
<path fill-rule="evenodd" clip-rule="evenodd" d="M118.314 130.07C118.565 130.115 118.823 130.088 119.059 129.995L140.265 121.581C140.842 121.352 141.193 120.763 141.12 120.146L140.841 117.81C140.82 117.636 140.769 117.475 140.693 117.332C140.585 117.127 140.613 116.846 140.814 116.73L146.998 113.159C147.228 113.026 147.307 112.733 147.174 112.503C147.042 112.274 146.748 112.195 146.518 112.328L134.879 119.047C134.878 119.048 134.876 119.049 134.875 119.05L117.195 129.258C116.918 129.417 116.992 129.835 117.306 129.891L118.314 130.07Z" fill="#C4C4C4"/>
<path fill-rule="evenodd" clip-rule="evenodd" d="M176.146 129.282C176.059 129.043 175.907 128.833 175.708 128.675L157.819 114.518C157.331 114.132 156.646 114.123 156.148 114.495L154.265 115.904C154.124 116.009 154.011 116.134 153.924 116.271C153.801 116.467 153.543 116.583 153.343 116.468L147.158 112.897C146.929 112.764 146.635 112.843 146.502 113.073C146.37 113.302 146.449 113.596 146.678 113.728L158.317 120.448C158.319 120.449 158.321 120.45 158.323 120.451L176.001 130.658C176.278 130.818 176.604 130.545 176.495 130.245L176.146 129.282Z" fill="#A4A4A4"/>
<path fill-rule="evenodd" clip-rule="evenodd" d="M176.146 128.802C176.059 128.563 175.907 128.353 175.708 128.195L157.819 114.037C157.331 113.652 156.646 113.642 156.148 114.015L154.265 115.424C154.124 115.529 154.011 115.654 153.924 115.791C153.801 115.987 153.543 116.103 153.343 115.988L147.158 112.417C146.929 112.284 146.635 112.363 146.502 112.592C146.37 112.822 146.449 113.116 146.678 113.248L158.317 119.968C158.319 119.969 158.321 119.97 158.323 119.971L176.001 130.178C176.278 130.338 176.604 130.065 176.495 129.765L176.146 128.802Z" fill="#C4C4C4"/>
<path fill-rule="evenodd" clip-rule="evenodd" d="M147.976 114.752C148.662 114.458 149.142 113.778 149.142 112.985C149.142 111.925 148.283 111.065 147.222 111.065C146.162 111.065 145.303 111.925 145.303 112.985C145.303 113.778 145.783 114.458 146.469 114.752L142.663 178.263H151.782L147.976 114.752Z" fill="#A4A4A4"/>
<path fill-rule="evenodd" clip-rule="evenodd" d="M147.496 114.752C148.182 114.458 148.662 113.778 148.662 112.985C148.662 111.925 147.803 111.065 146.742 111.065C145.682 111.065 144.823 111.925 144.823 112.985C144.823 113.778 145.303 114.458 145.989 114.752L142.183 178.263H151.302L147.496 114.752Z" fill="#C4C4C4"/>
</g>
<g opacity="0.6">
<rect x="1.80344" y="89.9556" width="18.7225" height="44.1515" rx="9.36124" fill="#E9EBF2"/>
<rect x="10.7455" y="107.84" width="1.11776" height="69.0217" rx="0.55888" fill="#E1E2E5"/>
<rect x="15.3568" y="110.294" width="1.11776" height="9.42161" rx="0.55888" transform="rotate(30 15.3568 110.294)" fill="#E1E2E5"/>
<rect width="1.11776" height="13.2551" rx="0.55888" transform="matrix(0.866025 -0.5 -0.5 -0.866025 11.0553 125.342)" fill="#E1E2E5"/>
</g>
<rect x="26.3333" y="53.5112" width="26.7722" height="63.1343" rx="13.3861" fill="#E9EBF2"/>
<rect x="39.1201" y="79.0847" width="1.59834" height="98.6974" rx="0.799169" fill="#E1E2E5"/>
<rect x="45.714" y="82.5942" width="1.59834" height="13.4724" rx="0.799169" transform="rotate(30 45.714 82.5942)" fill="#E1E2E5"/>
<rect width="1.59834" height="18.9541" rx="0.799169" transform="matrix(0.866025 -0.5 -0.5 -0.866025 39.563 104.112)" fill="#E1E2E5"/>
<rect x="100.624" y="85.0496" width="5.60683" height="91.111" fill="#20242E"/>
<rect x="100.624" y="85.0496" width="4.20512" height="91.111" fill="#334680"/>
<path d="M126.529 24.1184C129.838 24.1184 132.895 25.8837 134.55 28.7492L157.3 68.1544C158.955 71.02 158.955 74.5505 157.3 77.4161L134.55 116.821C132.895 119.687 129.838 121.452 126.529 121.452L81.0275 121.452C77.7187 121.452 74.6612 119.687 73.0067 116.821L50.2561 77.4161C48.6017 74.5505 48.6017 71.02 50.2561 68.1544L73.0067 28.7492C74.6611 25.8837 77.7187 24.1184 81.0275 24.1184L126.529 24.1184Z" fill="#2F63FF"/>
<path fill-rule="evenodd" clip-rule="evenodd" d="M61.5702 97.0126C97.0286 93.1612 124.627 63.1244 124.627 26.6415C124.627 25.7969 124.613 24.9558 124.583 24.1183H81.0275C77.7186 24.1183 74.6611 25.8836 73.0067 28.7492L50.2561 68.1543C48.6016 71.0199 48.6017 74.5504 50.2561 77.416L61.5702 97.0126Z" fill="white" fill-opacity="0.15"/>
<path d="M123.56 30.2947C125.984 30.2947 128.224 31.588 129.436 33.6875L149.789 68.9395C151.001 71.0389 151.001 73.6255 149.789 75.725L129.436 110.977C128.224 113.076 125.984 114.37 123.56 114.37L82.8544 114.37C80.4302 114.37 78.1901 113.076 76.978 110.977L56.6253 75.725C55.4132 73.6255 55.4132 71.0389 56.6253 68.9395L76.978 33.6875C78.1901 31.588 80.4302 30.2947 82.8544 30.2947L123.56 30.2947Z" stroke="white" stroke-width="3"/>
<path d="M72.0716 75.8446L81.5916 60.8446L88.1916 60.0446L87.6316 75.5246L91.4716 75.3646L91.0716 79.4046L87.8716 79.3246L88.1116 85.7646H82.5116L82.9116 79.2446L71.7516 79.2846L72.0716 75.8446ZM82.7916 65.2046L76.4316 75.4846L82.9916 75.4446L82.7916 65.2046ZM105.637 59.8046C108.384 59.8046 110.584 60.898 112.237 63.0846C113.917 65.2446 114.757 68.1113 114.757 71.6846C114.757 76.1913 113.744 79.738 111.717 82.3246C109.717 84.9113 106.957 86.2046 103.437 86.2046C100.744 86.2046 98.5436 85.1113 96.8369 82.9246C95.1569 80.7113 94.3169 77.8313 94.3169 74.2846C94.3169 70.0446 95.3703 66.578 97.4769 63.8846C99.6103 61.1646 102.33 59.8046 105.637 59.8046ZM104.717 82.2846C106.424 82.2846 107.61 81.6313 108.277 80.3246C108.97 79.018 109.317 76.698 109.317 73.3646C109.317 70.0313 108.97 67.698 108.277 66.3646C107.584 65.0046 106.37 64.3246 104.637 64.3246C102.904 64.3246 101.65 64.9646 100.877 66.2446C100.13 67.498 99.7569 69.698 99.7569 72.8446C99.7569 75.9646 100.157 78.3246 100.957 79.9246C101.757 81.498 103.01 82.2846 104.717 82.2846ZM116.369 75.8446L125.889 60.8446L132.489 60.0446L131.929 75.5246L135.769 75.3646L135.369 79.4046L132.169 79.3246L132.409 85.7646H126.809L127.209 79.2446L116.049 79.2846L116.369 75.8446ZM127.089 65.2046L120.729 75.4846L127.289 75.4446L127.089 65.2046Z" fill="white"/>
<path d="M64.4295 122.896H71.3502L87.079 171.97H48.7006L64.4295 122.896Z" fill="white"/>
<path fill-rule="evenodd" clip-rule="evenodd" d="M64.4295 122.896H71.3502L77.7022 142.714H58.0774L64.4295 122.896ZM56.2625 148.377L53.9435 155.612H81.8361L79.5171 148.377H56.2625ZM52.1287 161.274H83.651L87.079 171.97H48.7006L52.1287 161.274Z" fill="#2F63FF"/>
<rect x="38.9487" y="171.97" width="57.8822" height="4.40408" fill="#2F63FF"/>
<path fill-rule="evenodd" clip-rule="evenodd" d="M48.7006 171.97L50.213 167.251H85.5666L87.079 171.97H48.7006Z" fill="black" fill-opacity="0.2"/>
<mask id="mask1_3222_13792" style="mask-type:alpha" maskUnits="userSpaceOnUse" x="38" y="122" width="59" height="55">
<path fill-rule="evenodd" clip-rule="evenodd" d="M64.4295 122.896H71.3502L77.7022 142.714H58.0774L64.4295 122.896ZM56.2625 148.377L53.9435 155.612H81.8361L79.5171 148.377H56.2625ZM52.1287 161.274H83.651L87.079 171.97H48.7006L52.1287 161.274Z" fill="#2F63FF"/>
<rect x="38.9487" y="171.97" width="57.8822" height="4.40408" fill="#2F63FF"/>
<path fill-rule="evenodd" clip-rule="evenodd" d="M48.7006 171.97L50.213 167.251H85.5666L87.079 171.97H48.7006Z" fill="black" fill-opacity="0.2"/>
</mask>
<g mask="url(#mask1_3222_13792)">
<circle cx="31.3988" cy="110.942" r="58.826" fill="white" fill-opacity="0.2"/>
</g>
<path opacity="0.6" d="M34 189.565L505.92 189.565" stroke="#20242E" stroke-width="2" stroke-linecap="round" stroke-linejoin="round"/>
<g opacity="0.1" filter="url(#filter0_f_3222_13792)">
<ellipse cx="416.831" cy="188.163" rx="156.107" ry="8.85715" fill="black"/>
</g>
<mask id="mask2_3222_13792" style="mask-type:alpha" maskUnits="userSpaceOnUse" x="152" y="104" width="416" height="82">
<rect x="152.223" y="104.021" width="415.179" height="81.9286" fill="#D9D9D9"/>
</mask>
<g mask="url(#mask2_3222_13792)">
<path d="M244.218 173.225L240.961 180.367H288.733V178.782L262.078 178.515L244.218 173.225Z" fill="#263238" stroke="#263238" stroke-miterlimit="10"/>
<path d="M600.498 119.765V178.782H266.688C261.956 178.778 257.26 177.954 252.81 176.349L229.805 168.03C228.458 167.362 227.322 166.336 226.521 165.065C225.721 163.795 225.287 162.329 225.267 160.828C225.248 159.328 225.643 157.851 226.41 156.56C227.178 155.269 228.287 154.214 229.616 153.511L264.847 133.609C278.075 126.561 292.809 122.792 307.805 122.622L600.498 119.765Z" fill="white" stroke="#263238" stroke-miterlimit="10"/>
<path d="M226.549 165.079C227.331 166.352 228.461 167.375 229.806 168.03L252.811 176.38C257.261 177.986 261.957 178.809 266.69 178.813H600.499V165.111L226.549 165.079Z" fill="#4E7AFF" stroke="#263238" stroke-miterlimit="10"/>
<path d="M337.389 171.405H294.18C293.208 171.402 292.245 171.592 291.347 171.962C290.449 172.332 289.633 172.875 288.945 173.561C288.258 174.246 287.714 175.06 287.343 175.956C286.972 176.852 286.782 177.812 286.784 178.782H344.847C344.847 177.808 344.654 176.843 344.278 175.944C343.903 175.045 343.352 174.229 342.659 173.543C341.966 172.857 341.143 172.315 340.238 171.948C339.334 171.581 338.365 171.396 337.389 171.405Z" fill="#263238" stroke="#263238" stroke-miterlimit="10"/>
<path d="M298.458 186.159C302.542 186.159 305.854 182.856 305.854 178.782C305.854 174.708 302.542 171.405 298.458 171.405C294.373 171.405 291.062 174.708 291.062 178.782C291.062 182.856 294.373 186.159 298.458 186.159Z" fill="#263238" stroke="#263238" stroke-miterlimit="10"/>
<path d="M344.844 178.782C344.844 177.323 344.411 175.897 343.598 174.683C342.785 173.47 341.63 172.525 340.279 171.966C338.928 171.408 337.441 171.262 336.006 171.547C334.571 171.831 333.254 172.534 332.219 173.566C331.185 174.597 330.481 175.912 330.195 177.343C329.91 178.774 330.056 180.257 330.616 181.605C331.176 182.953 332.124 184.105 333.34 184.916C334.556 185.726 335.986 186.159 337.449 186.159C339.41 186.159 341.291 185.382 342.678 183.998C344.065 182.615 344.844 180.738 344.844 178.782Z" fill="#263238" stroke="#263238" stroke-miterlimit="10"/>
<path d="M600.497 157.043V135.288H321.808L283.666 157.043H600.497Z" fill="#4E7AFF" stroke="#263238" stroke-miterlimit="10"/>
<path d="M580.261 138.788H369.691V153.543H580.261V138.788Z" fill="#263238" stroke="#263238" stroke-miterlimit="10"/>
<path d="M283.667 137.234L305.854 127.22H280.063C274.808 128.907 269.716 131.06 264.847 133.656L249.962 141.975L269.269 138.835L283.667 137.234Z" fill="#263238" stroke="#263238" stroke-miterlimit="10"/>
<path d="M280.065 127.22H600.499V119.843L307.822 122.716C298.395 122.813 289.036 124.331 280.065 127.22Z" fill="#CCCCCC" stroke="#263238" stroke-miterlimit="10"/>
<path d="M364.752 169.741H358.804C357.29 169.737 355.84 169.135 354.77 168.068C353.699 167 353.096 165.553 353.092 164.043V137.36C353.092 135.847 353.693 134.397 354.764 133.326C355.835 132.255 357.288 131.651 358.804 131.647H364.752C366.268 131.651 367.721 132.255 368.792 133.326C369.863 134.397 370.464 135.847 370.464 137.36V164.043C370.46 165.553 369.857 167 368.786 168.068C367.716 169.135 366.266 169.737 364.752 169.741ZM358.804 132.761C357.598 132.761 356.441 133.239 355.588 134.09C354.736 134.94 354.257 136.094 354.257 137.297V163.981C354.261 165.182 354.741 166.334 355.593 167.183C356.445 168.033 357.599 168.512 358.804 168.517H364.752C365.957 168.512 367.111 168.033 367.963 167.183C368.815 166.334 369.295 165.182 369.3 163.981V137.297C369.3 136.094 368.82 134.94 367.968 134.09C367.115 133.239 365.958 132.761 364.752 132.761H358.804Z" fill="white" stroke="#263238" stroke-miterlimit="10"/>
<path d="M365.743 140.735H357.812V153.543H365.743V140.735Z" fill="white" stroke="#263238" stroke-miterlimit="10"/>
<path d="M329.992 140.735H322.061V153.543H329.992V140.735Z" fill="white" stroke="#263238" stroke-miterlimit="10"/>
<line x1="214.2" y1="108.199" x2="266.274" y2="108.199" stroke="black" stroke-opacity="0.49"/>
<line x1="169.937" y1="164.178" x2="206.389" y2="164.178" stroke="black" stroke-opacity="0.49"/>
<line x1="228.521" y1="121.218" x2="251.954" y2="121.218" stroke="black" stroke-opacity="0.49"/>
<line x1="184.258" y1="134.887" x2="207.691" y2="134.887" stroke="black" stroke-opacity="0.49"/>
<line x1="197.321" y1="181.147" x2="220.754" y2="181.147" stroke="black" stroke-opacity="0.49"/>
</g>
</g>
<defs>
<filter id="filter0_f_3222_13792" x="245.723" y="164.306" width="342.214" height="47.7144" filterUnits="userSpaceOnUse" color-interpolation-filters="sRGB">
<feFlood flood-opacity="0" result="BackgroundImageFix"/>
<feBlend mode="normal" in="SourceGraphic" in2="BackgroundImageFix" result="shape"/>
<feGaussianBlur stdDeviation="7.5" result="effect1_foregroundBlur_3222_13792"/>
</filter>
</defs>
</svg>
