<svg width="49" height="49" viewBox="0 0 49 49" fill="none" xmlns="http://www.w3.org/2000/svg">
<rect width="49" height="49" rx="24.5" fill="#E7F0FD"/>
<g clip-path="url(#clip0_740_7657)">
<path d="M22 20V19M22 24.5V23.5M22 29V28M17.2 16H30.8C31.9201 16 32.4802 16 32.908 16.218C33.2843 16.4097 33.5903 16.7157 33.782 17.092C34 17.5198 34 18.0799 34 19.2V20.5C32.067 20.5 30.5 22.067 30.5 24C30.5 25.933 32.067 27.5 34 27.5V28.8C34 29.9201 34 30.4802 33.782 30.908C33.5903 31.2843 33.2843 31.5903 32.908 31.782C32.4802 32 31.9201 32 30.8 32H17.2C16.0799 32 15.5198 32 15.092 31.782C14.7157 31.5903 14.4097 31.2843 14.218 30.908C14 30.4802 14 29.9201 14 28.8V27.5C15.933 27.5 17.5 25.933 17.5 24C17.5 22.067 15.933 20.5 14 20.5V19.2C14 18.0799 14 17.5198 14.218 17.092C14.4097 16.7157 14.7157 16.4097 15.092 16.218C15.5198 16 16.0799 16 17.2 16Z" stroke="#0066FF" stroke-width="2" stroke-linecap="round" stroke-linejoin="round"/>
</g>
<defs>
<clipPath id="clip0_740_7657">
<rect width="24" height="24" fill="white" transform="translate(12 12)"/>
</clipPath>
</defs>
</svg>
