<svg width="16" height="18" viewBox="0 0 16 18" fill="none" xmlns="http://www.w3.org/2000/svg">
<path fill-rule="evenodd" clip-rule="evenodd" d="M8.61537 16.6892C8.34474 16.9575 8.07237 17.2276 7.8 17.5C7.52763 17.2276 7.25526 16.9575 6.98463 16.6892C3.87708 13.6077 1 10.7547 1 7.3C1 3.54446 4.04446 0.5 7.8 0.5C11.5555 0.5 14.6 3.54446 14.6 7.3C14.6 10.7547 11.7229 13.6077 8.61537 16.6892ZM7.8 9.85C9.20833 9.85 10.35 8.70833 10.35 7.3C10.35 5.89167 9.20833 4.75 7.8 4.75C6.39167 4.75 5.25 5.89167 5.25 7.3C5.25 8.70833 6.39167 9.85 7.8 9.85Z" fill="#FFC7C7"/>
<path d="M7.8 17.5L7.44645 17.8536C7.64171 18.0488 7.95829 18.0488 8.15355 17.8536L7.8 17.5ZM8.61537 16.6892L8.2633 16.3341L8.61537 16.6892ZM6.98463 16.6892L6.63257 17.0442H6.63257L6.98463 16.6892ZM8.15355 17.8536C8.42506 17.582 8.69669 17.3127 8.96743 17.0442L8.2633 16.3341C7.9928 16.6024 7.71968 16.8732 7.44645 17.1464L8.15355 17.8536ZM6.63257 17.0442C6.90331 17.3127 7.17494 17.582 7.44645 17.8536L8.15355 17.1464C7.88031 16.8732 7.6072 16.6024 7.33669 16.3341L6.63257 17.0442ZM0.5 7.3C0.5 9.17345 1.28176 10.8526 2.42196 12.4277C3.5583 13.9975 5.08633 15.5109 6.63257 17.0442L7.33669 16.3341C5.77538 14.7859 4.31109 13.3321 3.23201 11.8413C2.15678 10.356 1.5 8.88124 1.5 7.3H0.5ZM7.8 0C3.76832 0 0.5 3.26832 0.5 7.3H1.5C1.5 3.82061 4.32061 1 7.8 1V0ZM15.1 7.3C15.1 3.26832 11.8317 0 7.8 0V1C11.2794 1 14.1 3.82061 14.1 7.3H15.1ZM8.96743 17.0442C10.5137 15.5109 12.0417 13.9975 13.178 12.4277C14.3182 10.8526 15.1 9.17345 15.1 7.3H14.1C14.1 8.88124 13.4432 10.356 12.368 11.8413C11.2889 13.3321 9.82462 14.7859 8.2633 16.3341L8.96743 17.0442ZM9.85 7.3C9.85 8.43218 8.93218 9.35 7.8 9.35V10.35C9.48447 10.35 10.85 8.98447 10.85 7.3H9.85ZM7.8 5.25C8.93218 5.25 9.85 6.16782 9.85 7.3H10.85C10.85 5.61553 9.48447 4.25 7.8 4.25V5.25ZM5.75 7.3C5.75 6.16782 6.66782 5.25 7.8 5.25V4.25C6.11553 4.25 4.75 5.61553 4.75 7.3H5.75ZM7.8 9.35C6.66782 9.35 5.75 8.43218 5.75 7.3H4.75C4.75 8.98447 6.11553 10.35 7.8 10.35V9.35Z" fill="#FF2B33"/>
</svg>
