<svg width="37" height="36" viewBox="0 0 37 36" fill="none" xmlns="http://www.w3.org/2000/svg">
<g clip-path="url(#clip0_1627_7896)" filter="url(#filter0_d_1627_7896)">
<path d="M32.4312 14C32.4312 6.26801 26.1631 0 18.4312 0C10.6992 0 4.43115 6.26801 4.43115 14C4.43115 20.9877 9.55072 26.7796 16.2437 27.8299V18.0469H12.689V14H16.2437V10.9156C16.2437 7.40688 18.3338 5.46875 21.5317 5.46875C23.0629 5.46875 24.6655 5.74219 24.6655 5.74219V9.1875H22.9002C21.1612 9.1875 20.6187 10.2668 20.6187 11.375V14H24.5015L23.8808 18.0469H20.6187V27.8299C27.3116 26.7796 32.4312 20.9877 32.4312 14Z" fill="#617BF4"/>
</g>
<defs>
<filter id="filter0_d_1627_7896" x="0.431152" y="0" width="36" height="36" filterUnits="userSpaceOnUse" color-interpolation-filters="sRGB">
<feFlood flood-opacity="0" result="BackgroundImageFix"/>
<feColorMatrix in="SourceAlpha" type="matrix" values="0 0 0 0 0 0 0 0 0 0 0 0 0 0 0 0 0 0 127 0" result="hardAlpha"/>
<feOffset dy="4"/>
<feGaussianBlur stdDeviation="2"/>
<feComposite in2="hardAlpha" operator="out"/>
<feColorMatrix type="matrix" values="0 0 0 0 0 0 0 0 0 0 0 0 0 0 0 0 0 0 0.25 0"/>
<feBlend mode="normal" in2="BackgroundImageFix" result="effect1_dropShadow_1627_7896"/>
<feBlend mode="normal" in="SourceGraphic" in2="effect1_dropShadow_1627_7896" result="shape"/>
</filter>
<clipPath id="clip0_1627_7896">
<rect width="28" height="28" fill="white" transform="translate(4.43115)"/>
</clipPath>
</defs>
</svg>
