<svg width="16" height="16" viewBox="0 0 16 16" fill="none" xmlns="http://www.w3.org/2000/svg">
<path d="M4.6873 5.41668C5.28584 6.6633 6.10176 7.83168 7.13507 8.86499C8.16838 9.8983 9.33676 10.7142 10.5834 11.3128C10.6906 11.3642 10.7442 11.39 10.8121 11.4098C11.0532 11.48 11.3492 11.4296 11.5534 11.2834C11.6109 11.2422 11.66 11.1931 11.7583 11.0948C12.059 10.7941 12.2093 10.6438 12.3604 10.5455C12.9305 10.1749 13.6654 10.1749 14.2355 10.5455C14.3866 10.6438 14.537 10.7941 14.8376 11.0948L15.0052 11.2623C15.4622 11.7194 15.6907 11.9479 15.8148 12.1933C16.0617 12.6814 16.0617 13.2578 15.8148 13.7459C15.6907 13.9913 15.4622 14.2198 15.0052 14.6768L14.8696 14.8124C14.4142 15.2678 14.1864 15.4955 13.8768 15.6695C13.5333 15.8625 12.9997 16.0012 12.6056 16.0001C12.2505 15.999 12.0078 15.9301 11.5224 15.7923C8.91378 15.0519 6.45226 13.6549 4.39869 11.6014C2.34511 9.5478 0.948124 7.08628 0.207722 4.47767C0.0699503 3.99227 0.00106355 3.74957 7.37728e-06 3.39445C-0.00116536 3.00039 0.1376 2.46679 0.330593 2.12323C0.504519 1.81362 0.732247 1.58589 1.1877 1.13044L1.32326 0.994875C1.78028 0.537855 2.00879 0.309344 2.25421 0.185213C2.74229 -0.0616564 3.3187 -0.0616564 3.80678 0.185213C4.05219 0.309344 4.2807 0.537854 4.73772 0.994875L4.9053 1.16246C5.20595 1.4631 5.35628 1.61343 5.45456 1.76459C5.8252 2.33465 5.8252 3.06956 5.45456 3.63962C5.35628 3.79078 5.20595 3.94111 4.90531 4.24176C4.807 4.34006 4.75785 4.38921 4.71671 4.44667C4.5705 4.65085 4.52002 4.9469 4.5903 5.18799C4.61008 5.25584 4.63582 5.30945 4.6873 5.41668Z" fill="#5454A7"/>
</svg>
