<svg width="33" height="32" viewBox="0 0 33 32" fill="none" xmlns="http://www.w3.org/2000/svg">
<g clip-path="url(#clip0_1627_7898)" filter="url(#filter0_d_1627_7898)">
<path d="M16.4312 2.16094C19.6374 2.16094 20.0171 2.175 21.278 2.23125C22.4499 2.28281 23.0827 2.47969 23.5046 2.64375C24.0624 2.85938 24.4655 3.12188 24.8827 3.53906C25.3046 3.96094 25.5624 4.35938 25.778 4.91719C25.9421 5.33906 26.139 5.97656 26.1905 7.14375C26.2468 8.40937 26.2608 8.78906 26.2608 11.9906C26.2608 15.1969 26.2468 15.5766 26.1905 16.8375C26.139 18.0094 25.9421 18.6422 25.778 19.0641C25.5624 19.6219 25.2999 20.025 24.8827 20.4422C24.4608 20.8641 24.0624 21.1219 23.5046 21.3375C23.0827 21.5016 22.4452 21.6984 21.278 21.75C20.0124 21.8063 19.6327 21.8203 16.4312 21.8203C13.2249 21.8203 12.8452 21.8063 11.5843 21.75C10.4124 21.6984 9.77959 21.5016 9.35772 21.3375C8.7999 21.1219 8.39678 20.8594 7.97959 20.4422C7.55771 20.0203 7.2999 19.6219 7.08428 19.0641C6.92021 18.6422 6.72334 18.0047 6.67178 16.8375C6.61553 15.5719 6.60146 15.1922 6.60146 11.9906C6.60146 8.78438 6.61553 8.40469 6.67178 7.14375C6.72334 5.97187 6.92021 5.33906 7.08428 4.91719C7.2999 4.35938 7.5624 3.95625 7.97959 3.53906C8.40146 3.11719 8.7999 2.85938 9.35772 2.64375C9.77959 2.47969 10.4171 2.28281 11.5843 2.23125C12.8452 2.175 13.2249 2.16094 16.4312 2.16094ZM16.4312 0C13.1733 0 12.7655 0.0140625 11.4858 0.0703125C10.2108 0.126563 9.33428 0.332812 8.5749 0.628125C7.78271 0.9375 7.1124 1.34531 6.44678 2.01562C5.77646 2.68125 5.36865 3.35156 5.05928 4.13906C4.76396 4.90313 4.55771 5.775 4.50146 7.05C4.44521 8.33437 4.43115 8.74219 4.43115 12C4.43115 15.2578 4.44521 15.6656 4.50146 16.9453C4.55771 18.2203 4.76396 19.0969 5.05928 19.8563C5.36865 20.6484 5.77646 21.3188 6.44678 21.9844C7.1124 22.65 7.78272 23.0625 8.57022 23.3672C9.33428 23.6625 10.2062 23.8687 11.4812 23.925C12.7608 23.9812 13.1687 23.9953 16.4265 23.9953C19.6843 23.9953 20.0921 23.9812 21.3718 23.925C22.6468 23.8687 23.5233 23.6625 24.2827 23.3672C25.0702 23.0625 25.7405 22.65 26.4062 21.9844C27.0718 21.3188 27.4843 20.6484 27.789 19.8609C28.0843 19.0969 28.2905 18.225 28.3468 16.95C28.403 15.6703 28.4171 15.2625 28.4171 12.0047C28.4171 8.74688 28.403 8.33906 28.3468 7.05938C28.2905 5.78438 28.0843 4.90781 27.789 4.14844C27.4937 3.35156 27.0858 2.68125 26.4155 2.01562C25.7499 1.35 25.0796 0.9375 24.2921 0.632812C23.528 0.3375 22.6562 0.13125 21.3812 0.075C20.0968 0.0140625 19.689 0 16.4312 0Z" fill="#617BF4"/>
<path d="M16.4312 5.83594C13.028 5.83594 10.2671 8.59688 10.2671 12C10.2671 15.4031 13.028 18.1641 16.4312 18.1641C19.8343 18.1641 22.5952 15.4031 22.5952 12C22.5952 8.59688 19.8343 5.83594 16.4312 5.83594ZM16.4312 15.9984C14.2233 15.9984 12.4327 14.2078 12.4327 12C12.4327 9.79219 14.2233 8.00156 16.4312 8.00156C18.639 8.00156 20.4296 9.79219 20.4296 12C20.4296 14.2078 18.639 15.9984 16.4312 15.9984Z" fill="#617BF4"/>
<path d="M24.278 5.59214C24.278 6.38902 23.6312 7.0312 22.839 7.0312C22.0421 7.0312 21.3999 6.38433 21.3999 5.59214C21.3999 4.79526 22.0468 4.15308 22.839 4.15308C23.6312 4.15308 24.278 4.79995 24.278 5.59214Z" fill="#617BF4"/>
</g>
<defs>
<filter id="filter0_d_1627_7898" x="0.431152" y="0" width="32" height="32" filterUnits="userSpaceOnUse" color-interpolation-filters="sRGB">
<feFlood flood-opacity="0" result="BackgroundImageFix"/>
<feColorMatrix in="SourceAlpha" type="matrix" values="0 0 0 0 0 0 0 0 0 0 0 0 0 0 0 0 0 0 127 0" result="hardAlpha"/>
<feOffset dy="4"/>
<feGaussianBlur stdDeviation="2"/>
<feComposite in2="hardAlpha" operator="out"/>
<feColorMatrix type="matrix" values="0 0 0 0 0 0 0 0 0 0 0 0 0 0 0 0 0 0 0.25 0"/>
<feBlend mode="normal" in2="BackgroundImageFix" result="effect1_dropShadow_1627_7898"/>
<feBlend mode="normal" in="SourceGraphic" in2="effect1_dropShadow_1627_7898" result="shape"/>
</filter>
<clipPath id="clip0_1627_7898">
<rect width="24" height="24" fill="white" transform="translate(4.43115)"/>
</clipPath>
</defs>
</svg>
