<svg width="25" height="25" viewBox="0 0 25 25" fill="none" xmlns="http://www.w3.org/2000/svg">
<path d="M8.96443 12.9774C8.96443 10.7684 10.7558 8.9771 12.9662 8.9771C15.1766 8.9771 16.9689 10.7684 16.9689 12.9774C16.9689 15.1865 15.1766 16.9777 12.9662 16.9777C10.7558 16.9777 8.96443 15.1865 8.96443 12.9774ZM6.80063 12.9774C6.80063 16.3806 9.56094 19.1393 12.9662 19.1393C16.3714 19.1393 19.1317 16.3806 19.1317 12.9774C19.1317 9.57422 16.3714 6.81556 12.9662 6.81556C9.56094 6.81556 6.80063 9.57422 6.80063 12.9774ZM17.935 6.57124C17.9348 6.85605 18.0192 7.13449 18.1775 7.37136C18.3357 7.60823 18.5607 7.79289 18.8239 7.90198C19.0871 8.01108 19.3768 8.03971 19.6564 7.98426C19.9359 7.92881 20.1927 7.79176 20.3943 7.59046C20.5958 7.38915 20.7332 7.13262 20.7889 6.85331C20.8446 6.574 20.8162 6.28445 20.7072 6.02129C20.5983 5.75812 20.4137 5.53314 20.1768 5.37482C19.9399 5.2165 19.6614 5.13193 19.3764 5.13182H19.3758C18.9938 5.132 18.6275 5.28369 18.3574 5.55358C18.0872 5.82347 17.9353 6.18948 17.935 6.57124ZM8.11528 22.7451C6.94462 22.6919 6.30834 22.497 5.88549 22.3323C5.3249 22.1142 4.92491 21.8544 4.50437 21.4347C4.08383 21.015 3.82352 20.6157 3.60624 20.0554C3.4414 19.633 3.2464 18.9969 3.19319 17.827C3.13498 16.5621 3.12335 16.1821 3.12335 12.9775C3.12335 9.77294 3.13594 9.39402 3.19319 8.12807C3.2465 6.95812 3.44294 6.32327 3.60624 5.89962C3.82448 5.33937 4.08441 4.93963 4.50437 4.51934C4.92434 4.09905 5.32394 3.83889 5.88549 3.62174C6.30814 3.457 6.94462 3.26212 8.11528 3.20894C9.38093 3.15076 9.76113 3.13915 12.9662 3.13915C16.1712 3.13915 16.5518 3.15172 17.8185 3.20894C18.9892 3.26222 19.6244 3.45854 20.0483 3.62174C20.6089 3.83889 21.0089 4.09963 21.4294 4.51934C21.85 4.93905 22.1093 5.33937 22.3276 5.89962C22.4924 6.32202 22.6874 6.95812 22.7406 8.12807C22.7988 9.39402 22.8105 9.77294 22.8105 12.9775C22.8105 16.1821 22.7988 16.561 22.7406 17.827C22.6873 18.9969 22.4914 19.6328 22.3276 20.0554C22.1093 20.6157 21.8494 21.0154 21.4294 21.4347C21.0095 21.8541 20.6089 22.1142 20.0483 22.3323C19.6257 22.4971 18.9892 22.6919 17.8185 22.7451C16.5529 22.8033 16.1727 22.8149 12.9662 22.8149C9.75969 22.8149 9.38055 22.8033 8.11528 22.7451ZM8.01586 1.05009C6.73762 1.10826 5.86417 1.31082 5.10137 1.60746C4.31139 1.9138 3.64264 2.32478 2.97437 2.99159C2.3061 3.65841 1.89593 4.32782 1.58941 5.11732C1.29259 5.88014 1.08991 6.75259 1.0317 8.03006C0.972529 9.30955 0.958984 9.7186 0.958984 12.9774C0.958984 16.2362 0.972529 16.6453 1.0317 17.9248C1.08991 19.2023 1.29259 20.0747 1.58941 20.8375C1.89593 21.6265 2.30619 22.2967 2.97437 22.9632C3.64255 23.6298 4.31139 24.0402 5.10137 24.3474C5.86561 24.644 6.73762 24.8466 8.01586 24.9047C9.29679 24.9629 9.70541 24.9774 12.9662 24.9774C16.227 24.9774 16.6363 24.9639 17.9165 24.9047C19.1948 24.8466 20.0677 24.644 20.831 24.3474C21.6205 24.0402 22.2897 23.6301 22.958 22.9632C23.6263 22.2964 24.0356 21.6265 24.343 20.8375C24.6398 20.0747 24.8434 19.2022 24.9007 17.9248C24.9589 16.6443 24.9724 16.2362 24.9724 12.9774C24.9724 9.7186 24.9589 9.30955 24.9007 8.03006C24.8425 6.75249 24.6398 5.87966 24.343 5.11732C24.0356 4.3283 23.6252 3.65947 22.958 2.99159C22.2908 2.32372 21.6205 1.9138 20.832 1.60746C20.0677 1.31082 19.1948 1.10731 17.9175 1.05009C16.6372 0.991913 16.2279 0.977417 12.9671 0.977417C9.70637 0.977417 9.29679 0.990953 8.01586 1.05009Z" fill="url(#paint0_linear_2959_11408)"/>
<defs>
<linearGradient id="paint0_linear_2959_11408" x1="24.5109" y1="24.9774" x2="0.51089" y2="0.963981" gradientUnits="userSpaceOnUse">
<stop stop-color="#FBE18A"/>
<stop offset="0.21" stop-color="#FCBB45"/>
<stop offset="0.38" stop-color="#F75274"/>
<stop offset="0.52" stop-color="#D53692"/>
<stop offset="0.74" stop-color="#8F39CE"/>
<stop offset="1" stop-color="#5B4FE9"/>
</linearGradient>
</defs>
</svg>
