<svg width="23" height="32" viewBox="0 0 23 32" fill="none" xmlns="http://www.w3.org/2000/svg">
<g clip-path="url(#clip0_1627_7899)">
<path d="M7.07859 6.8788L7.55345 6.3453L8.71379 4.95958L10.5079 3.94611L10.8238 3.41261L11.1404 2.50623V1.75983L11.6682 1.17279L11.9848 0.426392H12.618L13.7783 1.0128L14.5149 2.2927L14.6208 3.78613L16.3613 4.74605L17.3659 5.49245L18.2626 6.66527L19.3177 9.17153L19.7402 10.7714L20.0038 12.6913L20.2674 14.504L21.1641 15.3059L21.639 16.6916L22.1138 18.0244L22.2721 19.463L21.639 20.7429L20.7422 21.5957L19.5819 21.8093L19.3706 22.7692L18.8428 24.102L17.7354 25.4354L16.5215 26.5018L14.8888 27.1418L13.0423 27.6217H10.033L7.81705 27.3547L5.28448 26.5018L3.80757 25.7554L2.75254 25.0059L2.01409 24.422L1.27501 23.5156L0.747803 22.7692L0.959058 21.6493L1.8558 21.1158V20.3165L2.22472 19.0366L2.9638 17.5432L3.64928 16.3168L4.33477 15.304L5.02026 14.664L5.54809 14.2905V13.3841L5.70637 12.3177L5.86466 10.6114L6.18123 9.17153L6.60311 7.83872L7.07859 6.8788Z" fill="#617BF4"/>
<path d="M22.4746 18.4118V18.3797C22.3659 17.3059 22.0329 16.2676 21.4974 15.3336C21.3485 15.0759 21.1777 14.8316 20.9871 14.6036C20.9185 14.5222 20.8341 14.4558 20.7391 14.4087C20.6442 14.3616 20.5406 14.3346 20.4349 14.3296C20.4293 14.2666 20.4231 14.1992 20.4169 14.1344C20.3788 13.73 20.3365 13.3344 20.2922 12.9502C20.2804 12.8545 20.2698 12.7612 20.2586 12.6649L20.233 12.4595C20.2341 12.4382 20.2312 12.4168 20.2243 12.3965C20.2193 12.3506 20.2131 12.3052 20.2068 12.2592C20.2052 12.2334 20.2017 12.2077 20.1963 12.1824C20.1906 12.1408 20.1844 12.0999 20.1794 12.0564C20.1744 12.0129 20.1719 12.0041 20.1676 11.9777C20.1632 11.9512 20.1557 11.8977 20.1495 11.8574C20.1433 11.8171 20.142 11.8063 20.1383 11.7805C20.1314 11.739 20.1252 11.6974 20.1177 11.6546C20.1163 11.6314 20.1128 11.6084 20.1071 11.5859C20.099 11.5361 20.0916 11.487 20.0835 11.4391C20.082 11.4247 20.0795 11.4104 20.076 11.3963C20.0654 11.3333 20.0548 11.2703 20.043 11.2073L20.0336 11.1557C20.0249 11.111 20.018 11.0663 20.0093 11.0228L19.9987 10.9598C19.9912 10.9214 19.9838 10.883 19.975 10.8458C19.9663 10.8086 19.9657 10.7979 19.9613 10.7734L19.9395 10.6669C19.9339 10.643 19.9289 10.6197 19.9246 10.5964C19.9202 10.5731 19.909 10.5227 19.9002 10.4899C19.8915 10.4572 19.8909 10.4458 19.8865 10.4238L19.8591 10.3028C19.857 10.2851 19.8533 10.2676 19.8479 10.2506C19.8348 10.1945 19.8211 10.1378 19.8074 10.0824L19.8012 10.0553C19.7893 10.0087 19.7794 9.96146 19.7675 9.9161L19.7513 9.85753C19.7432 9.82225 19.7339 9.78698 19.7251 9.75045L19.7083 9.68746C19.699 9.65408 19.6902 9.62447 19.6821 9.5892C19.674 9.55393 19.6703 9.54637 19.6641 9.52621C19.6578 9.50606 19.646 9.46323 19.6379 9.42984C19.6298 9.39646 19.6248 9.38827 19.6198 9.36686L19.5899 9.26608L19.5743 9.21065C19.5619 9.16845 19.5482 9.12562 19.5351 9.08467C19.5361 9.0755 19.5336 9.06627 19.5282 9.05885C19.512 9.00909 19.4971 8.95996 19.4815 8.91083L19.4659 8.8617C19.4541 8.82895 19.4435 8.79556 19.4329 8.76281L19.4142 8.70486C19.4036 8.67589 19.3942 8.64628 19.3836 8.61668L19.3631 8.5581C19.3568 8.53732 19.3431 8.50141 19.3325 8.47244L19.3126 8.41512L19.2808 8.3282C19.2746 8.31119 19.2671 8.29356 19.2609 8.27529C19.2546 8.25702 19.2366 8.2123 19.2241 8.17829C19.2217 8.1642 19.2166 8.15072 19.2092 8.13861C19.1923 8.09389 19.1743 8.05042 19.1574 8.00633L19.1418 7.96791L19.1038 7.87406L19.0826 7.8243L19.049 7.74431C19.0415 7.72604 19.0328 7.70903 19.0259 7.69077L18.9929 7.61581C18.9854 7.59818 18.9773 7.58117 18.9699 7.5629L18.9362 7.48921C18.9287 7.4722 18.9212 7.4552 18.9125 7.43819C18.9038 7.42118 18.8882 7.38654 18.877 7.36009C18.8658 7.33363 18.8633 7.33111 18.8558 7.31662L18.8022 7.20955C18.7985 7.20073 18.7947 7.19254 18.7904 7.18435L18.7405 7.08483L18.7187 7.04263L18.6819 6.97082L18.6564 6.92295L18.6203 6.85997L18.5953 6.81273C18.5835 6.79194 18.5723 6.77053 18.5592 6.74974L18.5343 6.7025C18.5212 6.68108 18.5087 6.6603 18.4969 6.63951L18.4719 6.59542L18.4283 6.51543C18.4283 6.50472 18.4171 6.49527 18.4115 6.48582C18.3903 6.45181 18.3704 6.4178 18.3492 6.37938L18.3274 6.3441L18.2862 6.28112L18.2594 6.24017L18.2214 6.1816L18.194 6.14002L18.1572 6.0846L18.1286 6.04302L18.0906 5.98886L18.0631 5.94917C18.0494 5.92902 18.0351 5.91012 18.0214 5.89059C18.0077 5.87107 18.0052 5.86855 17.9971 5.85658L17.9348 5.76903L17.9161 5.74321L17.8687 5.68022L17.84 5.64432L17.8008 5.59393L17.7703 5.55676L17.7322 5.50952L17.7017 5.47236L17.6637 5.42638L17.6332 5.39111L17.587 5.3445L17.5596 5.31237L17.5079 5.25505L17.4855 5.23049L17.4231 5.1612L17.3945 5.13223L17.3521 5.08751L17.3216 5.05664L17.2817 5.01507L17.2499 4.98295L17.21 4.94453L17.1782 4.91366L17.1377 4.87398L17.1072 4.84501L17.0611 4.80281L17.0355 4.7795L16.9651 4.71651L16.9396 4.6951L16.8629 4.6277L16.8205 4.59243L16.7875 4.56597L16.7476 4.53259L16.7152 4.5074L16.6735 4.47527L16.6411 4.44945L16.5968 4.4167L16.5669 4.39402L16.5046 4.34804L16.4784 4.32788L16.4236 4.28946L16.3924 4.26868L16.3494 4.2397L16.317 4.21703L16.2746 4.18931L16.2416 4.1679L16.1999 4.14144L16.1668 4.12129L16.1238 4.09483L16.0921 4.0753L16.0416 4.04444L16.0179 4.03058L15.9456 3.98901L15.9169 3.9739L15.8702 3.9487L15.839 3.93106L15.7954 3.90776L15.7618 3.89075L15.7206 3.86934L15.6889 3.85107L15.6459 3.83029L15.5617 3.77927L15.5343 3.76667L15.4614 3.73391L15.4383 3.72321L15.3866 3.70053L15.3561 3.68793L15.3112 3.66841L15.2788 3.65581L15.2364 3.6388L15.204 3.62621L15.1604 3.60857L15.1293 3.59723L15.0838 3.58023L15.0538 3.56952L14.9747 3.54243L14.9062 3.51913L14.8881 3.51409C14.9667 3.08455 14.9552 2.64313 14.8544 2.21835C14.7536 1.79358 14.5657 1.39492 14.3029 1.04814C13.8256 0.410712 13.1507 3.5675e-05 12.583 3.5675e-05C12.4444 -0.00331885 12.3067 0.0235218 12.1793 0.0787339C12.0519 0.133946 11.9377 0.216235 11.8445 0.32001C11.6756 0.506795 11.5776 0.748021 11.5678 1.0009C11.3816 1.02597 11.207 1.10632 11.066 1.23179C10.925 1.35726 10.824 1.5222 10.7758 1.70573C10.7376 1.84646 10.7304 1.99392 10.7546 2.13778C10.7788 2.28163 10.8339 2.41838 10.916 2.53842C10.6879 2.75194 10.4835 3.08326 10.4611 3.6218C10.1285 3.73874 9.80534 3.88151 9.49455 4.04885C9.42288 4.08727 9.35246 4.12758 9.28391 4.16916L9.10506 4.2756C9.06207 4.30269 9.01907 4.33103 8.97544 4.36001C8.84582 4.44567 8.71745 4.53763 8.58908 4.63715C8.54574 4.67066 8.50414 4.7064 8.46444 4.74423C8.38509 4.80806 8.30657 4.87524 8.22889 4.94579C8.15099 5.0157 8.05191 5.10766 7.96404 5.19396C7.8394 5.31993 7.72038 5.44591 7.60198 5.58322C7.54527 5.6462 7.48918 5.71738 7.4331 5.78667C7.37701 5.85595 7.34648 5.89374 7.30472 5.95232L7.23244 6.0468C7.16389 6.14044 7.09638 6.23681 7.02991 6.33591C6.96323 6.43543 6.88658 6.55889 6.81865 6.67479C6.76817 6.76045 6.71957 6.84674 6.67034 6.93555C6.63419 6.99854 6.59805 7.06845 6.5644 7.13711C6.50208 7.26309 6.43478 7.39599 6.37246 7.53267C6.25406 7.78966 6.14355 8.0626 6.04093 8.3515C5.97862 8.52724 5.9163 8.70927 5.86208 8.89886C5.82407 9.02484 5.78668 9.15459 5.75116 9.28686C5.71564 9.41914 5.68573 9.54196 5.65519 9.67297C5.64584 9.71329 5.63587 9.75423 5.62777 9.79895C5.59599 9.93815 5.56545 10.0824 5.53804 10.2254C5.51394 10.3513 5.49109 10.4792 5.46949 10.609C5.42794 10.8689 5.38993 11.1385 5.35545 11.4177C5.31889 11.7381 5.28939 12.0711 5.26696 12.4167C5.25387 12.6107 5.24328 12.8009 5.23393 12.9836C5.22458 13.1662 5.21586 13.3527 5.209 13.5322C5.20215 13.7117 5.19591 13.8868 5.19093 14.0588V14.1721C5.02641 14.1721 4.52601 14.1721 3.18619 16.3861C2.41283 17.6673 1.76474 19.0379 1.49802 19.9632C1.39208 20.314 1.29549 20.7644 1.39956 21.0919H1.38897L1.33662 21.1026L1.31294 21.1077L1.26495 21.1184L1.24252 21.1247L1.1908 21.1385L1.17397 21.1442C1.15154 21.1505 1.12973 21.1581 1.10854 21.1662H1.09794L1.04498 21.1877L1.02503 21.1965L0.983281 21.2154L0.962717 21.2261L0.921588 21.2488L0.904139 21.2582L0.851169 21.2922C0.833097 21.3048 0.815025 21.318 0.7982 21.3319L0.783867 21.3432L0.748969 21.3741L0.732144 21.3905L0.68416 21.4383C0.673566 21.4509 0.662349 21.4642 0.651755 21.478L0.642407 21.4906C0.628697 21.5089 0.614988 21.5272 0.601901 21.5461L0.5938 21.5599C0.584452 21.575 0.574482 21.5908 0.56638 21.6072C0.562866 21.6143 0.558911 21.6213 0.55454 21.6279C0.546426 21.6425 0.539345 21.6577 0.533352 21.6733C0.530243 21.6814 0.526492 21.6891 0.522135 21.6966L0.490354 21.7596L0.481629 21.7823C0.473528 21.8068 0.464804 21.832 0.457326 21.8591C0.449234 21.89 0.442991 21.9213 0.43863 21.953C0.433923 21.9874 0.431425 22.0221 0.431152 22.0569C0.442404 22.3837 0.524518 22.7041 0.671696 22.9954C0.763267 23.1968 0.869064 23.3913 0.988267 23.5774C1.04124 23.6586 1.09358 23.7412 1.1559 23.8243C1.54086 24.3501 1.99092 24.8239 2.49509 25.234C2.64922 25.3624 2.81229 25.4884 2.98428 25.6119C3.28752 25.8308 3.60249 26.0327 3.92776 26.2166C5.06193 26.8565 6.49585 27.4007 8.25381 27.6898C8.53549 27.7364 8.82817 27.7761 9.13186 27.8089C9.80354 27.8811 10.4786 27.9168 11.154 27.9159C11.9454 27.9198 12.7356 27.8566 13.5165 27.727C13.7944 27.6791 14.0611 27.6205 14.3185 27.5582C15.9867 27.1412 17.2318 26.3765 18.1541 25.3826C18.194 25.3404 18.2333 25.2963 18.2713 25.2529C18.3336 25.1823 18.3945 25.1111 18.4539 25.0393L18.5467 24.9234C18.6383 24.805 18.7256 24.6853 18.8103 24.5619C18.8564 24.4945 18.9019 24.4265 18.9456 24.3572C19.1337 24.0626 19.3027 23.7561 19.4516 23.4395C19.4896 23.3595 19.527 23.2795 19.5575 23.1976C19.5806 23.1453 19.6024 23.0911 19.6248 23.0407C19.6709 22.928 19.7164 22.8146 19.7588 22.6994C19.7893 22.6181 19.8211 22.535 19.8473 22.4474C19.8741 22.3718 19.899 22.2962 19.9233 22.2194L19.99 22.0059C20.0248 22.0112 20.0601 22.0137 20.0953 22.0134C20.1802 22.0135 20.2645 21.9991 20.3446 21.9706C20.7773 21.8267 21.1766 21.5952 21.518 21.2903C21.8995 20.9444 22.181 20.5003 22.3325 20.0054C22.4859 19.4894 22.5342 18.9473 22.4746 18.4118ZM12.2091 2.74565C12.2138 2.74585 12.2185 2.74428 12.2222 2.74124C12.2242 2.7398 12.226 2.73794 12.2273 2.73576C12.2286 2.73359 12.2294 2.73116 12.2296 2.72864C12.2314 2.7242 12.2314 2.71922 12.2296 2.71478C12.2286 2.71262 12.2271 2.71071 12.2253 2.70918C12.2235 2.70766 12.2213 2.70656 12.219 2.70596C11.7429 2.48173 11.2575 2.26505 11.3634 1.87327C11.4139 1.68431 11.5741 1.60873 11.7778 1.60873C12.0909 1.63248 12.3952 1.72399 12.6702 1.87705C12.6734 1.87832 12.677 1.87832 12.6802 1.87705C12.6842 1.87728 12.6881 1.87618 12.6914 1.8739C12.6946 1.87135 12.6971 1.86812 12.6989 1.86446C12.7001 1.86056 12.7001 1.85638 12.6989 1.85249C12.6983 1.84855 12.6963 1.84497 12.6933 1.84241C12.348 1.48464 11.9748 1.10735 12.2994 0.731946C12.3362 0.694381 12.3806 0.665389 12.4295 0.647001C12.4785 0.628612 12.5309 0.621273 12.583 0.625498C13.2429 0.625498 14.5429 1.73974 14.2917 3.35977L14.2612 3.35347L14.2194 3.34465L14.1889 3.33836L14.1453 3.32954L14.0686 3.31568H14.0443L13.9745 3.30434H13.9608L13.9029 3.29552H13.8773L13.8318 3.28923H13.7327L13.6897 3.28419H13.5925L13.5364 3.27852H12.6191L12.4839 3.28482H12.4745L12.3499 3.29363H12.3362L12.2203 3.30308H12.2016L12.0888 3.31505H12.0757L11.9629 3.32891H11.9548L11.8395 3.34339L11.6813 3.36733L11.5198 3.39567L11.4769 3.40449C11.3709 3.42339 11.2749 3.4448 11.1709 3.46748L11.1192 3.48071L11.0967 3.48575C11.2189 2.82879 11.7504 2.77147 12.2091 2.74565ZM2.38292 19.2861C2.81598 18.2664 3.33208 17.2848 3.92589 16.3515C4.61886 15.2625 5.0233 14.8915 5.16226 14.8146C5.1702 14.8089 5.17906 14.8047 5.18844 14.802C5.35856 14.8102 5.57916 15.0055 5.7711 15.316C5.77733 15.3273 5.78481 15.338 5.79104 15.3487C6.35875 16.3024 6.57624 17.9942 5.95681 19.174C5.84057 19.3982 5.69899 19.6081 5.53492 19.7994C5.1336 20.2533 4.62537 20.5973 4.05738 20.7997C3.92901 20.8475 3.80811 20.8841 3.70654 20.9118C2.8852 21.1303 2.21093 21.0377 1.9735 20.9042C1.95356 20.8488 1.88376 20.4967 2.38292 19.2861ZM19.8822 19.2073C19.8118 20.0363 19.6677 20.8572 19.4516 21.6601C19.3892 21.8786 19.3269 22.0915 19.2553 22.3C18.9449 23.2321 18.4581 24.0942 17.822 24.8384C17.1198 25.6262 16.2426 26.2344 15.2626 26.6127C14.1185 27.0663 12.74 27.2962 11.1621 27.2962C10.406 27.2985 9.65041 27.2522 8.90004 27.1576C8.60279 27.1192 8.30927 27.0738 8.02199 27.0203C6.96061 26.8286 5.92764 26.5014 4.94789 26.0465C3.61306 25.4166 2.4764 24.5398 1.74667 23.5724C1.07364 22.6811 1.0294 22.1155 1.05432 22.0229C1.11041 21.8226 1.22756 21.6676 2.15796 21.6676H2.66023C3.35133 21.6676 3.87666 21.5725 4.30603 21.3691C5.24677 21.0317 6.03033 20.3537 6.5052 19.4662C7.253 18.0383 6.97008 16.1147 6.32385 15.0281C6.18695 14.7877 6.0059 14.5758 5.79042 14.4039C5.80538 13.7993 5.82968 13.1499 5.87392 12.4564C6.06088 9.48149 6.871 7.22844 8.27874 5.75265C8.95159 5.04889 9.78066 4.5173 10.6973 4.20191C11.0968 4.06352 11.5085 3.96418 11.9268 3.90524C12.2518 3.85929 12.5795 3.83593 12.9077 3.83532C13.5103 3.83095 14.1101 3.92083 14.6856 4.10176C15.4547 4.3511 16.1571 4.77513 16.7389 5.34135C18.2582 6.79887 19.2353 9.28686 19.6447 12.7373C19.7114 13.3004 19.7787 13.9158 19.8317 14.5639C19.9582 16.0252 20.0224 17.6522 19.8822 19.2073ZM21.8819 19.0014C21.8802 19.1163 21.8711 19.231 21.8545 19.3447C21.8394 19.4524 21.8186 19.5592 21.7922 19.6646C21.732 19.9142 21.6318 20.152 21.4956 20.3688C21.442 20.4534 21.3829 20.5342 21.3186 20.6107C21.2874 20.6483 21.2539 20.6838 21.2183 20.7171C21.1834 20.7493 21.1466 20.7889 21.1129 20.8242C21.0793 20.8595 21.0413 20.8872 21.007 20.9181C20.8965 21.0063 20.7792 21.0855 20.6562 21.1549C20.577 21.1996 20.4954 21.2399 20.4144 21.2765C20.3334 21.313 20.2498 21.3458 20.1651 21.3741C20.1894 21.274 20.2112 21.1725 20.2336 21.0718C20.2872 20.8173 20.334 20.5599 20.3739 20.2995C20.3826 20.241 20.3919 20.1824 20.3994 20.1232C20.4212 19.9739 20.4405 19.8227 20.4586 19.6709C20.4698 19.5645 20.4804 19.458 20.491 19.3516C20.5016 19.2451 20.511 19.1381 20.5184 19.0316C20.5309 18.8716 20.5415 18.7116 20.5515 18.5516C20.5564 18.4446 20.5621 18.3381 20.5658 18.2317C20.5695 18.1252 20.5733 18.0181 20.5758 17.9117V16.7905C20.5758 16.6841 20.5758 16.5776 20.567 16.4705C20.5583 16.3635 20.5596 16.2577 20.5552 16.1506C20.5508 16.0435 20.5471 15.9377 20.5415 15.8306C20.5272 15.5409 20.5078 15.253 20.4867 14.9683H20.4972C20.506 14.9746 20.514 14.982 20.5209 14.9904C20.5994 15.0836 20.6763 15.1839 20.7515 15.2914C20.8082 15.3721 20.863 15.4565 20.9179 15.5434L20.9715 15.6328C21.0923 15.8394 21.201 16.0531 21.2968 16.2728C21.3454 16.3792 21.3915 16.4964 21.4351 16.6116C21.5003 16.7851 21.5593 16.9629 21.6121 17.1451C21.6638 17.324 21.7106 17.5067 21.7486 17.69C21.8003 17.9365 21.839 18.1857 21.8645 18.4364C21.872 18.4994 21.8769 18.5624 21.8801 18.6253C21.8826 18.7608 21.885 18.883 21.8819 19.0014Z" fill="#383838"/>
<path d="M10.3788 29.9692C10.2425 29.9669 10.11 29.923 9.99874 29.8432C9.88753 29.7633 9.80279 29.6514 9.75567 29.522L9.1325 27.8157C8.83088 27.7821 8.5382 27.7424 8.25445 27.6967C8.54298 28.5067 8.89819 29.5031 8.99852 29.7696C9.03217 29.8584 8.99852 29.9692 8.83587 29.9692H7.87619C7.87619 29.9692 7.58579 30.6161 8.37472 30.5928C10.5558 30.5267 10.3184 32.2935 11.0051 31.9577C11.6657 31.6378 10.4081 30.5909 10.4274 30.5928C12.9382 30.9128 12.1362 29.9667 12.1362 29.9667C12.1362 29.9667 10.8581 29.9692 10.3788 29.9692Z" fill="#383838"/>
<path d="M15.09 29.1C15.0284 29.1008 14.9681 29.0824 14.9173 29.0471C14.8662 29.0125 14.8267 28.9631 14.8039 28.9054C14.6886 28.6131 14.4718 27.9914 14.3185 27.5625C14.0611 27.6255 13.7913 27.6828 13.5164 27.7307C13.6822 28.1936 13.9122 28.8348 13.9315 28.8966C13.977 29.0383 13.9439 29.0918 13.6959 29.0918H12.7612C12.7612 29.0918 12.492 29.6997 13.5233 29.6997C15.6271 29.6997 15.189 31.4872 15.9985 31.0293C16.5151 30.7371 15.5555 29.9132 15.4782 29.8149C15.4339 29.7595 15.4695 29.6814 15.5835 29.6984C17.7328 30.0303 17.2037 29.0918 17.2037 29.0918C17.2037 29.0918 15.7206 29.1 15.09 29.1Z" fill="#383838"/>
<path d="M11.8165 10.8968C11.9071 10.8752 11.9893 10.8269 12.0528 10.7581C12.1162 10.6893 12.158 10.603 12.1729 10.5101C12.1879 10.4173 12.1752 10.322 12.1365 10.2365C12.0979 10.1509 12.035 10.0788 11.9558 10.0294C11.8767 9.97992 11.7847 9.95532 11.6917 9.95868C11.5987 9.96204 11.5088 9.9932 11.4333 10.0482C11.3578 10.1033 11.3002 10.1797 11.2677 10.2678C11.2352 10.356 11.2292 10.4519 11.2507 10.5434C11.2648 10.6042 11.2907 10.6616 11.3268 10.7122C11.3629 10.7629 11.4085 10.8059 11.4611 10.8387C11.5137 10.8715 11.5721 10.8936 11.6331 10.9035C11.6941 10.9135 11.7564 10.9112 11.8165 10.8968V10.8968Z" fill="#383838"/>
<path d="M16.9253 10.8338C17.0044 10.7842 17.0672 10.7121 17.1057 10.6266C17.1443 10.541 17.1569 10.4458 17.1419 10.353C17.1269 10.2602 17.085 10.1739 17.0216 10.1052C16.9582 10.0364 16.876 9.98821 16.7854 9.96665C16.6949 9.94509 16.6 9.95115 16.5129 9.98405C16.4257 10.017 16.3502 10.0752 16.2958 10.1515C16.2414 10.2278 16.2106 10.3187 16.2073 10.4126C16.204 10.5066 16.2284 10.5995 16.2772 10.6795C16.3097 10.7326 16.3523 10.7788 16.4025 10.8154C16.4526 10.8519 16.5094 10.8781 16.5696 10.8924C16.6298 10.9067 16.6922 10.9089 16.7533 10.8989C16.8143 10.8888 16.8728 10.8667 16.9253 10.8338V10.8338Z" fill="#383838"/>
<g filter="url(#filter0_d_1627_7899)">
<path d="M15.5693 12.0936L14.3778 11.5947C14.3379 11.5798 14.2957 11.5721 14.2532 11.572C14.2106 11.5722 14.1685 11.5799 14.1285 11.5947L12.9345 12.0936C12.8971 12.1048 12.8635 12.1267 12.8379 12.1565C12.8126 12.1871 12.7967 12.2246 12.7925 12.2643C12.7877 12.304 12.7947 12.3443 12.8124 12.3801C12.8305 12.4156 12.8581 12.4451 12.8922 12.4652L14.1011 13.2576C14.1448 13.2891 14.1977 13.3048 14.2513 13.3023C14.3045 13.3047 14.357 13.289 14.4002 13.2576L15.6111 12.4652C15.6367 12.4503 15.6588 12.43 15.6759 12.4055C15.6929 12.3811 15.7044 12.3532 15.7096 12.3238C15.7149 12.2944 15.7137 12.2642 15.7061 12.2353C15.6985 12.2064 15.6848 12.1795 15.6659 12.1565C15.6401 12.1269 15.6066 12.1051 15.5693 12.0936Z" fill="#383838"/>
</g>
</g>
<defs>
<filter id="filter0_d_1627_7899" x="8.79102" y="11.572" width="10.9219" height="9.73047" filterUnits="userSpaceOnUse" color-interpolation-filters="sRGB">
<feFlood flood-opacity="0" result="BackgroundImageFix"/>
<feColorMatrix in="SourceAlpha" type="matrix" values="0 0 0 0 0 0 0 0 0 0 0 0 0 0 0 0 0 0 127 0" result="hardAlpha"/>
<feOffset dy="4"/>
<feGaussianBlur stdDeviation="2"/>
<feComposite in2="hardAlpha" operator="out"/>
<feColorMatrix type="matrix" values="0 0 0 0 0 0 0 0 0 0 0 0 0 0 0 0 0 0 0.25 0"/>
<feBlend mode="normal" in2="BackgroundImageFix" result="effect1_dropShadow_1627_7899"/>
<feBlend mode="normal" in="SourceGraphic" in2="effect1_dropShadow_1627_7899" result="shape"/>
</filter>
<clipPath id="clip0_1627_7899">
<rect width="22.069" height="32" fill="white" transform="translate(0.431152)"/>
</clipPath>
</defs>
</svg>
