<svg height="316.227766" viewBox="0 0 400 400" width="316.227766" xmlns="http://www.w3.org/2000/svg"><path d="m210.404 39.548c-3.568 1.025-3.476 5.657.197 9.848 2.156 2.459 1.967 2.647-1.385 1.373-10.095-3.836-14.613 2.989-5.353 8.087 3.698 2.036 3.908 2.567 1.139 2.892-3.937.463-6.93 2.346-8.089 5.089-.825 1.953-.272 2.074 5.121 1.118 5.251-.931 22.661-1.355 26.069-.635 3.445.728 2.892-7.907-1.032-16.12-3.201-6.7-12.142-12.951-16.667-11.652m-4.604 33.888c-5.63.762-7.341 1.162-13.6 3.181-19.578 6.316-35.445 22.984-43.394 45.583-5.267 14.974-7.484 28.612-8.366 51.47l-.359 9.295 2.265 2.473c10.32 11.262 13.079 35.264 5.744 49.962-7.488 15.005-22.89 23.781-41.761 23.795-16.522.012-18.511 1.502-14.503 10.865 6.067 14.175 24.535 29.44 45.595 37.688 7.732 3.028 14.013 4.935 21.979 6.674 27.261 5.948 63.15 4.356 81.2-3.604.88-.388 2.77-1.217 4.2-1.842s3.271-1.551 4.092-2.056c.821-.506 1.594-.92 1.719-.92 1.238 0 10.933-7.605 14.593-11.447 9.758-10.243 17.938-26.311 20.543-40.353.123-.66.51-2.46.86-4s.794-3.97.986-5.4c.191-1.43.671-4.85 1.066-7.6.904-6.3 1.066-39.121.237-48-1.268-13.58-3.145-29.854-3.945-34.2-.323-1.76-.856-4.73-1.183-6.6s-.848-4.39-1.158-5.6c-.309-1.21-1.037-4.09-1.616-6.4-11.296-45.009-38.646-67.912-75.194-62.964m-.676 64.174c2.315 1.412 3.074 4.404 1.692 6.671-2.066 3.388-6.811 3.21-8.639-.325-2.184-4.224 2.865-8.835 6.947-6.346m53.576.959c2.287 2.496 1.585 6.036-1.515 7.639-5.485 2.836-9.808-5.732-4.385-8.691 2.08-1.135 4.25-.748 5.9 1.052m-21.171 18.082c8.278 3.399 9.064 4.482 5.171 7.128-13.717 9.322-12.562 9.06-19.7 4.47-11.919-7.663-11.936-7.399.8-12.533 6.116-2.465 5.315-2.52 13.729.935m-104.978 31.713c-1.121.684-5.712 5.866-7.474 8.436-7.819 11.406-19.877 32.65-19.877 35.02 0 .087-.43 1.108-.955 2.269-2.457 5.43-4.645 12.661-4.645 15.35 0 2.576 1.335 3.065 8.4 3.081 17.437.04 32.154-10.592 36.435-26.32 3.556-13.062-1.511-34.403-9.013-37.963-1.635-.776-1.37-.788-2.871.127m163.288 2.372c-.114.185-.014 4.19.222 8.9.751 14.998.025 34.27-1.686 44.764-.414 2.536-.597 3.532-1.602 8.71-.626 3.229-.572 3.255 2.994 1.493 14.118-6.975 17.868-22.584 10.764-44.803-2.869-8.971-9.558-20.898-10.692-19.064" fill="#facd00"/><path d="m208.834 33.066c-3.338.716-7.634 5.77-7.634 8.981 0 .551-.56 1.021-1.9 1.596-5.782 2.478-8.163 7.623-6.157 13.302l.828 2.346-.954 1.254c-1.569 2.063-2.917 5.126-3.202 7.274-.345 2.598-.437 2.715-2.815 3.59-18.605 6.842-34.808 24.007-43.146 45.709-2.481 6.459-2.802 7.458-4.816 14.982-2.681 10.014-5.376 33.589-5.434 47.536-.003.85-.287 1.129-1.579 1.556-8.677 2.863-28.078 33.648-36.684 58.208-1.326 3.783-1.805 6.146-2.096 10.332l-.245 3.533-2.143.753c-21.146 7.429 5.613 44.405 42.943 59.34 1.54.616 3.16 1.274 3.6 1.462 2.401 1.028 11.339 3.758 15.737 4.806 7.478 1.782 8.093 1.914 10.109 2.171 2.42.309 2.949.772 3.887 3.403.432 1.21 1.536 4.27 2.454 6.8s1.935 5.41 2.261 6.4.741 2.16.922 2.6c2.093 5.073 2.166 5-4.974 5-5.528 0-6.196.274-6.196 2.54 0 3.086 1.616 3.927 8.214 4.273 9.454.496 13.83 2.891 19.127 10.47 2.922 4.181 4.644 4.887 7.028 2.881 2.3-1.934.852-5.781-4.003-10.636-2.56-2.56-2.821-2.443 5.528-2.489 5.216-.029 7.372-.185 8.106-.589 2.842-1.563 3.522-3.424 1.971-5.396l-.829-1.054h-9.745c-13.563 0-13.262.168-16.804-9.4-.814-2.2-2.082-5.62-2.817-7.6-2.033-5.478-2.092-5.237 1.224-5 6.361.454 32.012.199 36.4-.363 7.624-.976 6.506-1.937 10.188 8.763 1.578 4.586 1.63 4.542-5.701 4.8l-5.687.2v1.556c0 2.941 1.643 3.744 9.045 4.424 3.413.313 6.734.783 7.38 1.045 4.936 2 7.247 3.874 10.175 8.252 3.65 5.457 4.58 6.078 7.133 4.758 3.357-1.737 2.543-4.788-2.845-10.661-2.936-3.199-2.678-3.665 1.712-3.095 9.113 1.181 14.8-.565 14.8-4.544 0-2.058.454-1.984-11.958-1.948-14 .042-13.09.415-15.451-6.332-.512-1.46-1.484-4.091-2.16-5.846-1.471-3.813-1.49-4.058-.331-4.316 1.765-.394 8.105-2.352 9.292-2.87.664-.29 2.198-.927 3.408-1.415 17.277-6.969 31.342-20.097 39.736-37.089 2.248-4.55 5.864-13.656 5.864-14.765 0-.785 1.447-1.754 2.618-1.754 8.431 0 20.331-11.636 23.225-22.709 4.667-17.853-7.417-54.135-19.084-57.299l-1.441-.391-.476-4.3c-.262-2.366-.665-6.011-.895-8.101-.607-5.515-2.263-17.44-2.777-20-.243-1.21-.619-3.1-.835-4.2-7.72-39.267-25.73-66.068-50.535-75.201-3.022-1.113-2.948-.967-2.706-5.363.964-17.503-14.263-35.087-27.86-32.17m7.966 7.639c6.728 3.109 12.314 11.892 13.288 20.895.549 5.074.167 6.175-1.985 5.72-3.408-.72-20.818-.296-26.069.635-5.393.956-5.946.835-5.121-1.118 1.159-2.743 4.152-4.626 8.089-5.089 2.769-.325 2.559-.856-1.139-2.892-9.26-5.098-4.742-11.923 5.353-8.087 3.352 1.274 3.541 1.086 1.385-1.373-6.037-6.887-2.037-12.495 6.199-8.691m7.2 32.706c27.865 3.957 47.673 25.849 56.994 62.989.579 2.31 1.307 5.19 1.616 6.4.31 1.21.831 3.73 1.158 5.6s.86 4.84 1.183 6.6c.8 4.346 2.677 20.62 3.945 34.2.829 8.879.667 41.7-.237 48-.395 2.75-.875 6.17-1.066 7.6-.192 1.43-.636 3.86-.986 5.4s-.737 3.34-.86 4c-2.605 14.042-10.785 30.11-20.543 40.353-3.66 3.842-13.355 11.447-14.593 11.447-.125 0-.898.414-1.719.92-.821.505-2.662 1.431-4.092 2.056s-3.32 1.454-4.2 1.842c-10.396 4.585-26.114 7.158-43.818 7.173-34.69.031-62.778-8.004-84.382-24.138-15.81-11.807-26.916-30.025-20.334-33.354 1.607-.813 6.922-1.299 14.263-1.304 30.816-.023 50.635-23.441 45.129-53.324-1.528-8.294-4.883-15.819-9.112-20.433l-2.265-2.473.359-9.295c.761-19.721 2.551-32.629 6.221-44.87 8.712-29.058 24.578-46.077 49.939-53.57 7.467-2.206 19.193-2.984 27.4-1.819m-23.419 63.951c-2.4 1.046-3.588 4.304-2.404 6.594 1.294 2.502 4.229 3.482 6.661 2.225 5.604-2.899 1.53-11.339-4.257-8.819m52.219.155c-5.423 2.959-1.1 11.527 4.385 8.691 1.846-.955 2.815-2.493 2.815-4.468 0-3.661-3.966-5.987-7.2-4.223m-29 18.199c-12.736 5.134-12.719 4.87-.8 12.533 7.138 4.59 5.983 4.852 19.7-4.47 3.893-2.646 3.107-3.729-5.171-7.128-8.414-3.455-7.613-3.4-13.729-.935m-88.378 32.521c7.502 3.56 12.569 24.901 9.013 37.963-4.281 15.728-18.998 26.36-36.435 26.32-7.065-.016-8.4-.505-8.4-3.081 0-2.689 2.188-9.92 4.645-15.35.525-1.161.955-2.182.955-2.269 0-2.37 12.058-23.614 19.877-35.02 1.762-2.57 6.353-7.752 7.474-8.436 1.501-.915 1.236-.903 2.871-.127m162.408 3.879c3.437 4.705 6.619 11.174 8.701 17.684 7.104 22.219 3.354 37.828-10.764 44.803-3.566 1.762-3.62 1.736-2.994-1.493 1.005-5.178 1.188-6.174 1.602-8.71 1.711-10.494 2.437-29.766 1.686-44.764-.516-10.294-.453-10.563 1.769-7.52" fill="#383838"/></svg>