<svg width="21" height="21" viewBox="0 0 21 21" fill="none" xmlns="http://www.w3.org/2000/svg">
<path fill-rule="evenodd" clip-rule="evenodd" d="M10.9593 19.0461L10.9589 19.0464C10.6407 19.362 10.3203 19.6797 10 20C9.68035 19.6803 9.36069 19.3634 9.04308 19.0484L9.04089 19.0462L9.04074 19.0461C5.38479 15.4208 2 12.0643 2 8C2 3.58172 5.58172 0 10 0C14.4183 0 18 3.58172 18 8C18 12.0643 14.6152 15.4208 10.9593 19.0461ZM10 11C11.6569 11 13 9.65685 13 8C13 6.34315 11.6569 5 10 5C8.34315 5 7 6.34315 7 8C7 9.65685 8.34315 11 10 11Z" fill="#6DFF73"/>
</svg>
