<svg width="24" height="26" viewBox="0 0 24 26" fill="none" xmlns="http://www.w3.org/2000/svg">
<path d="M4.65 15.6293C2.70607 16.5685 1.5 17.8773 1.5 19.325C1.5 22.1831 6.20101 24.5 12 24.5C17.799 24.5 22.5 22.1831 22.5 19.325C22.5 17.8773 21.2939 16.5685 19.35 15.6293M18.3 8.4C18.3 13.0733 13.575 15.3 12 18.75C10.425 15.3 5.7 13.0733 5.7 8.4C5.7 4.58923 8.52061 1.5 12 1.5C15.4794 1.5 18.3 4.58923 18.3 8.4Z" stroke="#142374" stroke-width="2" stroke-linecap="round" stroke-linejoin="round"/>
<path d="M11.8 19.25C13.375 15.8 18.1 13.5733 18.1 8.9C18.1 5.08923 15.2794 2 11.8 2C8.32061 2 5.5 5.08923 5.5 8.9C5.5 13.5733 10.225 15.8 11.8 19.25Z" fill="#142374"/>
<path d="M11.8 10.05C12.3799 10.05 12.85 9.53513 12.85 8.9C12.85 8.26487 12.3799 7.75 11.8 7.75C11.2201 7.75 10.75 8.26487 10.75 8.9C10.75 9.53513 11.2201 10.05 11.8 10.05Z" fill="#142374"/>
<path d="M11.8 10.05C12.3799 10.05 12.85 9.53513 12.85 8.9C12.85 8.26487 12.3799 7.75 11.8 7.75C11.2201 7.75 10.75 8.26487 10.75 8.9C10.75 9.53513 11.2201 10.05 11.8 10.05Z" fill="white"/>
</svg>
