<svg width="23" height="25" viewBox="0 0 23 25" fill="none" xmlns="http://www.w3.org/2000/svg">
<path d="M4.15 15.1293C2.20607 16.0685 1 17.3773 1 18.825C1 21.6831 5.70101 24 11.5 24C17.299 24 22 21.6831 22 18.825C22 17.3773 20.7939 16.0685 18.85 15.1293M17.8 7.9C17.8 12.5733 13.075 14.8 11.5 18.25C9.925 14.8 5.2 12.5733 5.2 7.9C5.2 4.08923 8.02061 1 11.5 1C14.9794 1 17.8 4.08923 17.8 7.9ZM12.55 7.9C12.55 8.53513 12.0799 9.05 11.5 9.05C10.9201 9.05 10.45 8.53513 10.45 7.9C10.45 7.26487 10.9201 6.75 11.5 6.75C12.0799 6.75 12.55 7.26487 12.55 7.9Z" stroke="#AEB3C9" stroke-width="2" stroke-linecap="round" stroke-linejoin="round"/>
</svg>
