<svg width="37" height="37" viewBox="0 0 37 37" fill="none" xmlns="http://www.w3.org/2000/svg">
<rect width="37" height="37" rx="18.5" fill="#617BF4"/>
<g clip-path="url(#clip0_740_7743)">
<path d="M8.5 14.8C8.5 13.9517 8.50039 13.3455 8.53921 12.8703C8.57756 12.401 8.65089 12.1037 8.77248 11.865C9.01217 11.3946 9.39462 11.0122 9.86502 10.7725C10.1037 10.6509 10.401 10.5776 10.8703 10.5392C11.3455 10.5004 11.9517 10.5 12.8 10.5H23.2C24.0483 10.5 24.6545 10.5004 25.1297 10.5392C25.599 10.5776 25.8963 10.6509 26.135 10.7725C26.6054 11.0122 26.9878 11.3946 27.2275 11.865C27.3491 12.1037 27.4224 12.401 27.4608 12.8703C27.4996 13.3455 27.5 13.9517 27.5 14.8V21.2C27.5 22.0483 27.4996 22.6545 27.4608 23.1297C27.4224 23.599 27.3491 23.8963 27.2275 24.135C26.9878 24.6054 26.6054 24.9878 26.135 25.2275C25.8963 25.3491 25.599 25.4224 25.1297 25.4608C24.6545 25.4996 24.0483 25.5 23.2 25.5H12.8C11.9517 25.5 11.3455 25.4996 10.8703 25.4608C10.401 25.4224 10.1037 25.3491 9.86502 25.2275C9.39462 24.9878 9.01217 24.6054 8.77248 24.135C8.65089 23.8963 8.57756 23.599 8.53921 23.1297C8.50039 22.6545 8.5 22.0483 8.5 21.2V14.8Z" stroke="white" stroke-linecap="round" stroke-linejoin="round"/>
</g>
<defs>
<clipPath id="clip0_740_7743">
<rect width="24" height="24" fill="white" transform="translate(6 6)"/>
</clipPath>
</defs>
</svg>
