<svg width="49" height="49" viewBox="0 0 49 49" fill="none" xmlns="http://www.w3.org/2000/svg">
<rect width="49" height="49" rx="24.5" fill="#E7F0FD"/>
<path d="M35 22H15M15 20.2L15 27.8C15 28.9201 15 29.4802 15.218 29.908C15.4097 30.2843 15.7157 30.5903 16.092 30.782C16.5198 31 17.0799 31 18.2 31L31.8 31C32.9201 31 33.4802 31 33.908 30.782C34.2843 30.5903 34.5903 30.2843 34.782 29.908C35 29.4802 35 28.9201 35 27.8V20.2C35 19.0799 35 18.5198 34.782 18.092C34.5903 17.7157 34.2843 17.4097 33.908 17.218C33.4802 17 32.9201 17 31.8 17L18.2 17C17.0799 17 16.5198 17 16.092 17.218C15.7157 17.4097 15.4097 17.7157 15.218 18.092C15 18.5198 15 19.0799 15 20.2Z" stroke="#0066FF" stroke-width="2" stroke-linecap="round" stroke-linejoin="round"/>
</svg>
