<svg width="25" height="23" viewBox="0 0 25 23" fill="none" xmlns="http://www.w3.org/2000/svg">
<path d="M24 8.64286H1M1 6.07143L1 16.9286C1 18.5287 1 19.3288 1.25069 19.94C1.47119 20.4776 1.82305 20.9147 2.25582 21.1886C2.74782 21.5 3.39188 21.5 4.68 21.5L20.32 21.5C21.6081 21.5 22.2522 21.5 22.7442 21.1886C23.177 20.9147 23.5288 20.4776 23.7493 19.94C24 19.3288 24 18.5287 24 16.9286V6.07143C24 4.47128 24 3.67121 23.7493 3.06003C23.5288 2.52242 23.177 2.08534 22.7442 1.81141C22.2522 1.5 21.6081 1.5 20.32 1.5L4.68 1.5C3.39188 1.5 2.74782 1.5 2.25582 1.81141C1.82305 2.08533 1.47119 2.52242 1.25069 3.06003C1 3.6712 1 4.47128 1 6.07143Z" stroke="#AEB3C9" stroke-width="2" stroke-linecap="round" stroke-linejoin="round"/>
</svg>
