<svg width="49" height="49" viewBox="0 0 49 49" fill="none" xmlns="http://www.w3.org/2000/svg">
<rect width="49" height="49" rx="24.5" fill="#E7F0FD"/>
<g clip-path="url(#clip0_740_7640)">
<path d="M18.5833 26.0958C16.8863 26.8445 15.8333 27.8877 15.8333 29.0416C15.8333 31.3198 19.9374 33.1666 25 33.1666C30.0626 33.1666 34.1667 31.3198 34.1667 29.0416C34.1667 27.8877 33.1138 26.8445 31.4167 26.0958M30.5 20.3333C30.5 24.0584 26.375 25.8333 25 28.5833C23.625 25.8333 19.5 24.0584 19.5 20.3333C19.5 17.2957 21.9624 14.8333 25 14.8333C28.0376 14.8333 30.5 17.2957 30.5 20.3333ZM25.9167 20.3333C25.9167 20.8396 25.5063 21.25 25 21.25C24.4937 21.25 24.0833 20.8396 24.0833 20.3333C24.0833 19.8271 24.4937 19.4166 25 19.4166C25.5063 19.4166 25.9167 19.8271 25.9167 20.3333Z" stroke="#0066FF" stroke-width="2" stroke-linecap="round" stroke-linejoin="round"/>
</g>
<defs>
<clipPath id="clip0_740_7640">
<rect width="22" height="22" fill="white" transform="translate(14 13)"/>
</clipPath>
</defs>
</svg>
