<svg width="512" height="453" viewBox="0 0 512 453" fill="none" xmlns="http://www.w3.org/2000/svg">
<path d="M0.365978 176.162L9.06744 163.572H38.072V153.403H69.4928V289.477H79.6449V219.261L85.929 210.544V142.265H116.867L125.569 148.077V200.375H137.17V290.445H150.706V185.848H177.293V288.508H186.962V241.052L196.146 227.977L203.881 238.146V262.358H214.032V215.387H262.374V290.445H278.325V177.131H289.928V113.695H319.898V176.162H330.534V290.445H350.353V254.612H370.172V207.155H413.196V252.674H436.4V289.961H452.351V166.962H511.811V323.374H0L0.365978 176.162Z" fill="#F4F5F6"/>
<path d="M87.8935 15.5069C77.0218 21.0503 66.6361 28.1053 59.8106 37.9248C47.0526 56.2792 49.0168 80.9358 56.7372 101.855C64.4586 122.774 77.2463 141.705 85.5152 162.433C103.491 207.498 98.1809 260.347 71.5967 300.964C62.844 314.338 51.4618 328.016 52.8232 343.815C54.5639 364.022 76.3022 377.042 96.6319 382.739C137.569 394.209 183.099 389.27 220.076 369.348C238.977 359.165 256.297 345.046 277.594 340.956C303.912 335.901 328.902 346.996 354.168 358.091C375.489 367.454 397.006 376.817 419.684 376.476C461.427 375.846 496.491 339.068 500.461 299.253C504.431 259.439 481.688 219.824 448.66 195.088C422.184 175.259 390.077 163.904 360.884 147.988C306.438 118.305 297.863 61.5001 249.138 28.4873C202.985 -2.78275 138.098 -10.0894 87.8935 15.5069Z" fill="#B8BEDF"/>
<path d="M345.459 398.125C345.459 405.237 295.301 411.004 233.427 411.004C171.554 411.004 121.396 405.237 121.396 398.125C121.396 391.012 171.554 385.247 233.427 385.247C295.301 385.247 345.459 391.012 345.459 398.125Z" fill="#E9E9E8"/>
<path d="M300.348 403.111H166.827C157.51 403.111 149.958 395.546 149.958 386.213V102.363C149.958 93.0301 157.51 85.4647 166.827 85.4647H300.348C309.665 85.4647 317.216 93.0301 317.216 102.363V386.213C317.216 395.546 309.665 403.111 300.348 403.111Z" fill="#3D42B9"/>
<path d="M308.187 403.111H174.667C165.35 403.111 157.798 395.546 157.798 386.213V102.363C157.798 93.0301 165.35 85.4647 174.667 85.4647H308.187C317.504 85.4647 325.056 93.0301 325.056 102.363V386.213C325.056 395.546 317.504 403.111 308.187 403.111Z" fill="#6267D6"/>
<path d="M317.216 105.536H167.38V369.951H317.216V105.536Z" fill="#BEDCF3"/>
<path d="M255.365 385.368C255.365 391.632 250.295 396.712 244.041 396.712C237.786 396.712 232.716 391.632 232.716 385.368C232.716 379.102 237.786 374.022 244.041 374.022C250.295 374.022 255.365 379.102 255.365 385.368Z" fill="#BEDCF3"/>
<path d="M272.352 98.7726H218.996C217.438 98.7726 216.164 97.4962 216.164 95.9363C216.164 94.3774 217.438 93.1009 218.996 93.1009H272.352C273.911 93.1009 275.184 94.3774 275.184 95.9363C275.184 97.4962 273.911 98.7726 272.352 98.7726Z" fill="#BEDCF3"/>
<path d="M309.376 140.442H189.502C190.219 139.222 190.631 137.8 190.631 136.281V118.626H290.533L309.376 127.293V140.442Z" fill="#CFE7F8"/>
<path d="M195.622 172.73H175.221V150.914H200.09V154.493H195.622V172.73Z" fill="#CFE7F8"/>
<path d="M309.376 273.667H290.706V295.484H309.376V273.667Z" fill="#CFE7F8"/>
<path d="M309.376 305.956H290.706V327.772H309.376V305.956Z" fill="#CFE7F8"/>
<path d="M309.376 337.663H290.706V359.479H309.376V337.663Z" fill="#CFE7F8"/>
<path d="M237.936 263.426H175.221V183.202H195.622V252.328H237.936V263.426Z" fill="#CFE7F8"/>
<path d="M308.208 263.684H290.705V263.426H245.492V252.328H308.208V263.684Z" fill="#CFE7F8"/>
<path d="M356.939 252.328H325.057V246.631H357.086C357.035 248.465 356.986 250.375 356.939 252.328Z" fill="#D4E3F4"/>
<path d="M325.056 246.631H317.216V252.328H325.056V246.631Z" fill="#79A3D6"/>
<path d="M317.216 252.328H308.208V250.106H245.492V252.328H237.936V246.631H317.216V252.328ZM200.09 183.202H195.622V172.73H200.09V183.202Z" fill="#A6CBEC"/>
<path d="M200.09 154.493H195.622V172.73H200.09V154.493Z" fill="#BCDAF3"/>
<path d="M237.936 252.328H195.622V183.202H200.09V246.631H237.936V252.328Z" fill="#BCDAF3"/>
<path d="M308.208 250.105H245.492V252.328H308.208V250.105Z" fill="#BCDAF3"/>
<path d="M390.21 148.798H200.09V246.631H390.21V148.798Z" fill="#F4F6F7"/>
<path d="M391.206 148.798H308.936V246.631H391.206V148.798Z" fill="#76A1D5"/>
<path d="M349.714 230.093C333.901 230.093 321.081 217.251 321.081 201.409C321.081 194.302 323.661 187.799 327.935 182.788C324.703 187.433 322.807 193.081 322.807 199.172C322.807 215.013 335.628 227.855 351.441 227.855C353.694 227.855 355.888 227.594 357.992 227.101C357.966 227.28 357.944 227.462 357.927 227.645C357.89 228.023 357.853 228.453 357.817 228.927C355.248 229.686 352.529 230.093 349.714 230.093Z" fill="#5B81C1"/>
<path d="M380.072 199.172C380.072 215.013 367.253 227.855 351.44 227.855C335.627 227.855 322.807 215.013 322.807 199.172C322.807 183.331 335.627 170.49 351.44 170.49C367.253 170.49 380.072 183.331 380.072 199.172Z" fill="#DCDBDB"/>
<path d="M376.546 199.172C376.546 213.061 365.306 224.32 351.441 224.32C337.576 224.32 326.336 213.061 326.336 199.172C326.336 185.282 337.576 174.023 351.441 174.023C365.306 174.023 376.546 185.282 376.546 199.172Z" fill="white"/>
<path d="M332.623 215.87C328.682 211.427 326.285 205.582 326.285 199.172C326.285 185.282 337.524 174.023 351.39 174.023H351.413C337.561 174.039 326.335 185.292 326.335 199.172C326.335 205.428 328.616 211.152 332.39 215.552C332.467 215.658 332.545 215.764 332.623 215.87Z" fill="#E3E3E3"/>
<path d="M332.39 215.552C328.617 211.152 326.336 205.428 326.336 199.172C326.336 185.292 337.561 174.039 351.413 174.023C359.648 174.03 366.954 178.011 371.527 184.153C366.929 178.97 360.227 175.702 352.761 175.702C338.895 175.702 327.655 186.961 327.655 200.85C327.655 206.339 329.412 211.417 332.39 215.552Z" fill="#F5F6F7"/>
<path d="M349.475 215.323C348.605 215.323 347.796 214.876 347.334 214.135L338.557 200.105C337.816 198.921 338.173 197.359 339.356 196.616C339.773 196.354 340.238 196.23 340.696 196.23C341.538 196.23 342.361 196.651 342.84 197.418L349.384 207.878L361.479 186.835C361.945 186.022 362.796 185.567 363.671 185.567C364.098 185.567 364.532 185.676 364.93 185.905C366.139 186.601 366.554 188.149 365.857 189.361L351.664 214.055C351.222 214.824 350.409 215.306 349.522 215.322L349.475 215.323Z" fill="#F5F6F7"/>
<path d="M350.389 214.255C349.52 214.255 348.711 213.808 348.247 213.067L339.471 199.037C338.73 197.853 339.088 196.291 340.271 195.548C341.454 194.805 343.013 195.165 343.754 196.35L350.298 206.81L362.391 185.767C363.087 184.555 364.633 184.139 365.842 184.837C367.052 185.533 367.468 187.081 366.772 188.293L352.579 212.987C352.136 213.756 351.323 214.238 350.436 214.254L350.389 214.255Z" fill="#95BDE4"/>
<path d="M236.237 173.615C236.237 181.311 230.008 187.55 222.326 187.55C214.644 187.55 208.415 181.311 208.415 173.615C208.415 165.92 214.644 159.681 222.326 159.681C230.008 159.681 236.237 165.92 236.237 173.615Z" fill="#76A1D5"/>
<path d="M221.943 175.586C221.407 175.586 220.968 175.147 220.968 174.609V163.939C220.968 163.401 221.407 162.961 221.943 162.961C222.48 162.961 222.919 163.401 222.919 163.939V174.609C222.919 175.147 222.48 175.586 221.943 175.586Z" fill="white"/>
<path d="M220.861 174.631C220.861 174.047 221.337 173.57 221.92 173.57H229.245C229.828 173.57 230.305 174.047 230.305 174.631C230.305 175.215 229.828 175.692 229.245 175.692H221.92C221.337 175.692 220.861 175.215 220.861 174.631Z" fill="white"/>
<path d="M302.742 166.699H244.257V171.276H302.742V166.699Z" fill="#E2E2E2"/>
<path d="M302.742 175.242H244.257V179.819H302.742V175.242Z" fill="#E2E2E2"/>
<path d="M222.794 217.701C219.05 217.701 216.015 214.66 216.015 210.91C216.015 207.159 219.05 204.118 222.794 204.118C226.538 204.118 229.573 207.159 229.573 210.91C229.573 214.66 226.538 217.701 222.794 217.701ZM222.794 200.365C216.41 200.365 211.235 205.549 211.235 211.944C211.235 218.337 222.675 237.719 222.794 237.719C222.86 237.719 234.351 218.337 234.351 211.944C234.351 205.549 229.176 200.365 222.794 200.365Z" fill="#76A1D5"/>
<path d="M302.742 213.283H244.257V217.86H302.742V213.283Z" fill="#E2E2E2"/>
<path d="M282.148 221.827H244.257V226.404H282.148V221.827Z" fill="#E2E2E2"/>
<path d="M149.958 361.261H100.585V347.917C110.52 340.576 118.837 336.981 118.939 336.938C119.061 336.885 119.118 336.745 119.065 336.622C119.026 336.531 118.938 336.476 118.846 336.476C118.814 336.476 118.782 336.483 118.752 336.496C118.649 336.538 110.442 340.086 100.585 347.321V263.426H149.958V361.261Z" fill="#D4E3F4"/>
<path d="M157.798 263.426H149.958V361.261H157.798V263.426Z" fill="#5E8ECA"/>
<path d="M167.38 263.426H157.798V361.261H167.38V263.426Z" fill="#79A3D6"/>
<path d="M290.705 361.261H167.38V263.426H175.22V263.71H237.936V263.426H245.492V263.684H290.705V273.667H175.22V295.484H290.705V305.956H175.22V327.772H290.705V337.663H175.22V359.479H290.705V361.261Z" fill="#A6CBEC"/>
<path d="M290.706 273.667H175.221V295.484H290.706V273.667Z" fill="#BCDAF3"/>
<path d="M290.706 305.956H175.221V327.772H290.706V305.956Z" fill="#BCDAF3"/>
<path d="M290.706 337.663H175.221V359.479H290.706V337.663Z" fill="#BCDAF3"/>
<path d="M237.936 263.426H175.221V263.71H237.936V263.426Z" fill="#BCDAF3"/>
<path d="M290.705 263.426H245.492V263.684H290.705V263.426Z" fill="#BCDAF3"/>
<path d="M295.172 257.731H105.052V355.565H295.172V257.731Z" fill="#F4F6F7"/>
<path d="M296.17 257.731H213.898V355.565H296.17V257.731Z" fill="#DD443E"/>
<path d="M257.688 305.417C252.64 305.417 248.546 301.318 248.546 296.259C248.546 291.2 252.64 287.101 257.688 287.101C262.738 287.101 266.831 291.2 266.831 296.259C266.831 301.318 262.738 305.417 257.688 305.417ZM257.688 282.041C249.081 282.041 242.103 289.03 242.103 297.653C242.103 306.277 257.528 332.412 257.688 332.412C257.777 332.412 273.275 306.277 273.275 297.653C273.275 289.03 266.297 282.041 257.688 282.041Z" fill="white"/>
<path d="M202.324 288.651H113.074V293.228H202.324V288.651Z" fill="#E2E2E2"/>
<path d="M170.898 297.194H113.074V301.771H170.898V297.194Z" fill="#E2E2E2"/>
<path d="M202.324 309.197H113.074V313.774H202.324V309.197Z" fill="#E2E2E2"/>
<path d="M170.898 317.741H113.074V322.317H170.898V317.741Z" fill="#E2E2E2"/>
<path d="M202.324 331.98H113.074V336.557H202.324V331.98Z" fill="#E2E2E2"/>
<path d="M170.898 340.525H113.074V345.102H170.898V340.525Z" fill="#E2E2E2"/>
<path d="M117.342 280.404C117.342 280.934 117.45 281.309 117.666 281.524C117.883 281.741 118.172 281.849 118.535 281.849C118.897 281.849 119.186 281.741 119.402 281.524C119.618 281.309 119.727 280.934 119.727 280.404V272.484C119.727 271.953 119.618 271.581 119.402 271.364C119.186 271.147 118.897 271.04 118.535 271.04C118.172 271.04 117.883 271.147 117.666 271.364C117.45 271.581 117.342 271.953 117.342 272.484V280.404ZM115.042 272.631C115.042 271.444 115.341 270.532 115.941 269.898C116.541 269.262 117.405 268.945 118.535 268.945C119.663 268.945 120.529 269.262 121.127 269.898C121.727 270.532 122.027 271.444 122.027 272.631V280.257C122.027 281.443 121.727 282.355 121.127 282.991C120.529 283.627 119.663 283.944 118.535 283.944C117.405 283.944 116.541 283.627 115.941 282.991C115.341 282.355 115.042 281.443 115.042 280.257V272.631Z" fill="#E2E2E2"/>
<path d="M126.775 276.57C127.137 276.57 127.426 276.462 127.642 276.245C127.858 276.028 127.966 275.656 127.966 275.125V272.484C127.966 271.953 127.858 271.584 127.642 271.374C127.426 271.165 127.137 271.06 126.775 271.06C126.412 271.06 126.123 271.165 125.907 271.374C125.69 271.584 125.583 271.953 125.583 272.484V275.125C125.583 275.656 125.69 276.028 125.907 276.245C126.123 276.462 126.412 276.57 126.775 276.57ZM130.268 280.131C130.268 281.375 129.982 282.32 129.41 282.97C128.838 283.619 127.953 283.944 126.753 283.944C125.625 283.944 124.77 283.627 124.192 282.991C123.613 282.355 123.324 281.443 123.324 280.257V279.879H125.499V280.404C125.499 280.934 125.607 281.309 125.824 281.524C126.039 281.741 126.328 281.849 126.691 281.849C127.095 281.849 127.408 281.724 127.632 281.472C127.854 281.221 127.966 280.746 127.966 280.048V277.366C127.562 278.232 126.851 278.664 125.834 278.664C124.983 278.664 124.345 278.379 123.92 277.806C123.494 277.234 123.282 276.402 123.282 275.314V272.631C123.282 271.444 123.582 270.532 124.181 269.898C124.78 269.262 125.645 268.945 126.775 268.945C127.904 268.945 128.769 269.262 129.368 269.898C129.967 270.532 130.268 271.444 130.268 272.631V280.131Z" fill="#E2E2E2"/>
<path d="M134.01 281.556V283.777H131.794V281.556H134.01ZM134.01 273.574V275.795H131.794V273.574H134.01Z" fill="#E2E2E2"/>
<path d="M137.797 280.404C137.797 280.934 137.904 281.309 138.12 281.524C138.337 281.741 138.626 281.849 138.988 281.849C139.351 281.849 139.64 281.741 139.856 281.524C140.072 281.309 140.18 280.934 140.18 280.404V272.484C140.18 271.953 140.072 271.581 139.856 271.364C139.64 271.147 139.351 271.04 138.988 271.04C138.626 271.04 138.337 271.147 138.12 271.364C137.904 271.581 137.797 271.953 137.797 272.484V280.404ZM135.496 272.631C135.496 271.444 135.795 270.532 136.395 269.898C136.995 269.262 137.859 268.945 138.988 268.945C140.117 268.945 140.982 269.262 141.581 269.898C142.181 270.532 142.481 271.444 142.481 272.631V280.257C142.481 281.443 142.181 282.355 141.581 282.991C140.982 283.627 140.117 283.944 138.988 283.944C137.859 283.944 136.995 283.627 136.395 282.991C135.795 282.355 135.496 281.443 135.496 280.257V272.631Z" fill="#E2E2E2"/>
<path d="M146.036 279.042V280.404C146.036 280.934 146.144 281.305 146.361 281.514C146.576 281.724 146.865 281.828 147.228 281.828C147.591 281.828 147.88 281.724 148.096 281.514C148.313 281.305 148.42 280.934 148.42 280.404V277.177C148.42 276.648 148.313 276.273 148.096 276.056C147.88 275.839 147.591 275.732 147.228 275.732C146.865 275.732 146.576 275.839 146.361 276.056C146.144 276.273 146.036 276.648 146.036 277.177V277.617H143.861L144.28 269.112H150.344V271.207H146.349L146.162 274.706C146.593 273.993 147.263 273.637 148.169 273.637C149.019 273.637 149.658 273.923 150.083 274.496C150.508 275.068 150.721 275.899 150.721 276.99V280.257C150.721 281.443 150.432 282.355 149.852 282.991C149.274 283.627 148.42 283.944 147.29 283.944C146.162 283.944 145.308 283.627 144.729 282.991C144.15 282.355 143.861 281.443 143.861 280.257V279.042H146.036Z" fill="#E2E2E2"/>
<path d="M281.586 59.5171C280.713 58.4101 279.824 57.3061 278.926 56.2145L279.188 55.6415C279.295 54.9298 279.769 54.289 280.642 54.0703L284.41 53.1265C284.339 53.296 284.292 53.4757 284.272 53.6595L281.586 59.5171Z" fill="white"/>
<path d="M325.608 134.523C325.428 134.523 325.244 134.501 325.056 134.455V127.992L329.095 129.85L328.661 130.798L327.429 133.484L327.423 133.481C327.083 134.1 326.398 134.523 325.608 134.523ZM269.692 85.4647H265.518L278.926 56.2145C279.824 57.3062 280.712 58.4101 281.586 59.5172L269.692 85.4647Z" fill="#D4E3F4"/>
<path d="M325.056 134.455C324.905 134.417 324.751 134.364 324.597 134.293L317.216 130.898V124.385L325.056 127.992V134.455ZM276.234 105.536H262.073L259.264 104.244C257.82 103.58 257.562 101.937 258.398 100.998L258.846 100.02L259.299 99.0325L259.351 98.9185L259.418 98.7727H263.593L263.234 99.5562L276.234 105.536ZM266.191 93.1009H262.018L265.518 85.4647H269.692L266.191 93.1009Z" fill="#79A3D6"/>
<path d="M317.216 130.898L309.376 127.293V120.78L317.216 124.385V130.898ZM304.694 118.626H290.533L262.073 105.536H276.234L293.847 113.636L301.93 117.354V117.355L304.694 118.626Z" fill="#A6CBEC"/>
<path d="M263.592 98.7726H259.418L262.018 93.1009H266.191L263.592 98.7726Z" fill="#A6CBEC"/>
<path d="M309.375 127.293L290.533 118.626H304.694L309.375 120.78V127.293Z" fill="#BCDAF3"/>
<path d="M286.695 51.7864L292.383 39.3759L295.83 40.9615L291.411 50.6054L290.091 50.9361L286.695 51.7864Z" fill="white"/>
<path d="M350.941 85.9257L285.609 55.8767C283.74 55.0171 283.833 52.5022 285.755 52.0215L290.09 50.9361L293.608 50.055L330.436 40.8321C331.484 40.5702 332.63 41.097 333.115 42.0644L350.135 76.0548L351.777 79.3287L353.765 83.3019C354.653 85.0754 352.811 86.7863 350.941 85.9257Z" fill="#FDCD57"/>
<path d="M349.852 83.5278L348.693 82.9949L351.044 77.8663L351.777 79.3287L349.852 83.5278ZM289.123 55.5963L288.158 55.1516L290.091 50.9361L291.411 50.6054L289.123 55.5963Z" fill="#FAA41E"/>
<path d="M333.268 129.851L263.959 97.9716L284.382 53.4161L353.691 85.2942L333.268 129.851Z" fill="#D9A13C"/>
<path d="M326.399 121.844L274.24 97.8546C272.194 96.9129 271.296 94.4873 272.236 92.4375L297.496 37.3272L357.066 64.7268L331.806 119.836C330.867 121.887 328.445 122.785 326.399 121.844Z" fill="#F4F6F7"/>
<path d="M346.163 69.0306L302.434 48.9172L304.002 45.4944L347.731 65.6079L346.163 69.0306Z" fill="#E2E2E2"/>
<path d="M327.837 68.3364L299.505 55.3047L301.074 51.8829L329.405 64.9137L327.837 68.3364Z" fill="#E2E2E2"/>
<path d="M339.819 82.8717L296.088 62.7582L297.657 59.3364L341.387 79.4489L339.819 82.8717Z" fill="#E2E2E2"/>
<path d="M321.493 82.1775L293.161 69.1467L294.729 65.7239L323.062 78.7547L321.493 82.1775Z" fill="#E2E2E2"/>
<path d="M284.382 53.4161L263.233 99.5562L332.543 131.435L353.692 85.2942L348.641 82.9712L308.083 93.2539L289.084 55.5789L284.382 53.4161Z" fill="#F4B945"/>
<path d="M311.552 92.3287L309.431 90.1413L309.507 90.1464L309.463 90.0715L348.641 82.9713L311.552 92.3287Z" fill="#EBEDEF"/>
<path d="M309.431 90.1413L306.42 89.9564L305.519 88.1696L305.536 88.1316L305.503 88.1388L304.083 85.3229L296.867 70.8514L298.687 71.6883L309.463 90.0715L309.377 90.0869L309.431 90.1413ZM294.529 66.1604L289.303 55.6795L295.362 66.0156L294.728 65.7239L294.529 66.1604Z" fill="#EBEDEF"/>
<path d="M298.687 71.6884L296.868 70.8514L294.529 66.1604L294.728 65.7239L295.363 66.0156L298.687 71.6884Z" fill="#D6D5D5"/>
<path d="M306.42 89.9565L306.393 89.9544L305.511 88.1871L305.519 88.1696L306.42 89.9565ZM305.488 88.1419L304.084 85.3229L305.504 88.1388L305.488 88.1419Z" fill="#F1A02B"/>
<path d="M309.507 90.1464L309.431 90.1413L309.378 90.0869L309.464 90.0715L309.507 90.1464Z" fill="#E1E4E6"/>
<path d="M332.543 131.435L329.095 129.849L325.056 127.992L317.216 124.385L309.375 120.78L304.693 118.626L301.93 117.354L313.62 91.8501L333.774 128.749L332.543 131.435Z" fill="#F1A02B"/>
<path d="M276.234 105.536H276.233L263.233 99.5562L276.234 105.536Z" fill="#5E83C2"/>
<path d="M293.846 113.636L276.233 105.536H276.234L293.846 113.636Z" fill="#8DB7E1"/>
<path d="M293.846 113.636L276.234 105.536L263.233 99.5562L264.464 96.8697L305.488 88.1418L305.511 88.187L293.846 113.636Z" fill="#F1A02B"/>
<path d="M305.52 88.1706L305.504 88.139L305.538 88.1316L305.52 88.1706Z" fill="#E1E4E6"/>
<path d="M305.511 88.1879L305.488 88.1419L305.504 88.1388L305.52 88.1701L305.511 88.1879Z" fill="#E88224"/>
<path d="M264.524 98.3393L309.205 87.1509C310.253 86.888 311.4 87.4158 311.884 88.3822L332.535 129.621C333.422 131.394 331.581 133.105 329.71 132.245L264.379 102.195C262.509 101.335 262.603 98.8199 264.524 98.3393Z" fill="#FDCD57"/>
<path d="M149.958 148.59H141.979C141.681 147.199 141.316 145.832 140.888 144.493H149.958V148.59Z" fill="#D4E3F4"/>
<path d="M157.798 144.493H149.958V148.59H157.798V144.493Z" fill="#5E8ECA"/>
<path d="M167.38 144.493H157.798V148.59H167.38V144.493Z" fill="#79A3D6"/>
<path d="M178.343 148.59H167.38V144.493H182.433C183.638 144.493 184.782 144.233 185.812 143.765C184.525 146.611 181.664 148.59 178.343 148.59Z" fill="#A6CBEC"/>
<path d="M83.5127 117.933V74.6942C83.5127 71.3659 85.4892 68.5008 88.3309 67.2109C87.8634 68.244 87.6041 69.3891 87.6041 70.5967V116.467C86.2088 116.888 84.8444 117.378 83.5127 117.933ZM169.599 62.3854H162.73V62.3546C162.73 60.462 164.275 58.9144 166.164 58.9144C168.053 58.9144 169.599 60.462 169.599 62.3546V62.3854ZM106.866 62.3854H99.9961V62.3546C99.9961 60.462 101.542 58.9144 103.431 58.9144C105.32 58.9144 106.866 60.462 106.866 62.3546V62.3854Z" fill="#D4E3F4"/>
<path d="M190.631 70.5967V136.281C190.631 140.816 186.961 144.493 182.434 144.493H95.8006C91.2735 144.493 87.6045 140.816 87.6045 136.281V70.5967C87.6045 66.0618 91.2735 62.3854 95.8006 62.3854H182.434C186.961 62.3854 190.631 66.0618 190.631 70.5967Z" fill="#F4F6F7"/>
<path d="M182.434 142.888H95.8006C91.2735 142.888 87.6045 139.211 87.6045 134.676V136.281C87.6045 140.816 91.2735 144.493 95.8006 144.493H182.434C186.961 144.493 190.631 140.816 190.631 136.281V134.676C190.631 139.211 186.961 142.888 182.434 142.888Z" fill="#E5E5E5"/>
<path d="M190.631 70.5967V80.7305H87.6045V70.5967C87.6045 66.0618 91.2735 62.3854 95.8006 62.3854H182.434C186.961 62.3854 190.631 66.0618 190.631 70.5967Z" fill="#DD443E"/>
<path d="M104.233 86.4659H94.3584V96.3583H104.233V86.4659Z" fill="#DCDBDB"/>
<path d="M120.26 86.4659H110.385V96.3583H120.26V86.4659Z" fill="#DCDBDB"/>
<path d="M136.287 86.4659H126.412V96.3583H136.287V86.4659Z" fill="#DCDBDB"/>
<path d="M152.314 86.4659H142.439V96.3583H152.314V86.4659Z" fill="#DCDBDB"/>
<path d="M168.34 86.4659H158.466V96.3583H168.34V86.4659Z" fill="#DCDBDB"/>
<path d="M184.366 86.4659H174.491V96.3583H184.366V86.4659Z" fill="#DCDBDB"/>
<path d="M104.233 100.431H94.3584V110.323H104.233V100.431Z" fill="#DCDBDB"/>
<path d="M120.26 100.431H110.385V110.323H120.26V100.431Z" fill="#DCDBDB"/>
<path d="M136.287 100.431H126.412V110.323H136.287V100.431Z" fill="#DCDBDB"/>
<path d="M152.314 100.431H142.439V110.323H152.314V100.431Z" fill="#DCDBDB"/>
<path d="M168.34 100.431H158.466V110.323H168.34V100.431Z" fill="#DCDBDB"/>
<path d="M184.366 100.431H174.491V110.323H184.366V100.431Z" fill="#DCDBDB"/>
<path d="M104.234 114.396H94.3584V124.288H104.234V114.396Z" fill="#DCDBDB"/>
<path d="M120.26 114.396H110.385V124.288H120.26V114.396Z" fill="#DCDBDB"/>
<path d="M136.287 114.396H126.412V124.288H136.287V114.396Z" fill="#DCDBDB"/>
<path d="M152.314 114.395H142.439V124.288H152.314V114.395Z" fill="#DCDBDB"/>
<path d="M168.34 114.395H158.466V124.288H168.34V114.395Z" fill="#DCDBDB"/>
<path d="M184.366 114.395H174.491V124.288H184.366V114.395Z" fill="#DCDBDB"/>
<path d="M104.234 128.361H94.3584V138.252H104.234V128.361Z" fill="#DCDBDB"/>
<path d="M120.26 128.361H110.385V138.252H120.26V128.361Z" fill="#DCDBDB"/>
<path d="M136.287 128.361H126.412V138.252H136.287V128.361Z" fill="#DCDBDB"/>
<path d="M152.314 128.361H142.439V138.252H152.314V128.361Z" fill="#DCDBDB"/>
<path d="M168.34 128.361H158.466V138.252H168.34V128.361Z" fill="#DCDBDB"/>
<path d="M184.366 128.361H174.491V138.252H184.366V128.361Z" fill="#DCDBDB"/>
<path d="M190.631 80.7305H87.6045V81.8786H190.631V80.7305Z" fill="#E5E5E5"/>
<path d="M112.635 71.864C112.635 74.6511 110.379 76.9103 107.598 76.9103C104.816 76.9103 102.561 74.6511 102.561 71.864C102.561 69.0779 104.816 66.8187 107.598 66.8187C110.379 66.8187 112.635 69.0779 112.635 71.864Z" fill="white"/>
<path d="M175.216 71.864C175.216 74.6511 172.96 76.9103 170.179 76.9103C167.397 76.9103 165.142 74.6511 165.142 71.864C165.142 69.0779 167.397 66.8187 170.179 66.8187C172.96 66.8187 175.216 69.0779 175.216 71.864Z" fill="white"/>
<path d="M107.522 74.5401C105.634 74.5401 104.088 72.9926 104.088 71.0999V58.2561C104.088 56.3645 105.634 54.8159 107.522 54.8159C109.411 54.8159 110.956 56.3645 110.956 58.2561V71.0999C110.956 72.9926 109.411 74.5401 107.522 74.5401Z" fill="#2D4FA2"/>
<path d="M170.255 74.5401C168.366 74.5401 166.82 72.9926 166.82 71.0999V58.2561C166.82 56.3645 168.366 54.8159 170.255 54.8159C172.144 54.8159 173.689 56.3645 173.689 58.2561V71.0999C173.689 72.9926 172.144 74.5401 170.255 74.5401Z" fill="#2D4FA2"/>
<path d="M85.9288 198.281C79.6642 196.104 74.0597 192.515 69.4926 187.892V153.403H57.2852C58.2385 143.657 62.4396 134.863 68.7914 128.126C74.6522 139.445 80.8133 150.648 85.5147 162.433C85.6541 162.782 85.7925 163.135 85.9288 163.485V198.281Z" fill="white"/>
<path d="M95.0352 200.362C91.8839 199.997 88.8341 199.291 85.9288 198.281V163.485C90.5625 175.37 93.5857 187.784 95.0352 200.362ZM69.4926 187.892C61.8184 180.123 57.0791 169.439 57.0791 157.646C57.0791 156.214 57.1488 154.799 57.2852 153.403H69.4926V187.892Z" fill="#EBEBEC"/>
<path d="M100.006 200.646C98.3245 200.646 96.6668 200.55 95.0358 200.362C93.5863 187.784 90.5631 175.371 85.9294 163.485C85.7931 163.135 85.6547 162.782 85.5153 162.433C80.8139 150.648 74.6528 139.445 68.792 128.126C72.8987 123.77 77.9056 120.273 83.5131 117.933V140.38C83.5131 144.915 87.1832 148.59 91.7102 148.59H141.979C142.604 151.51 142.933 154.539 142.933 157.646C142.933 181.394 123.713 200.646 100.006 200.646Z" fill="#D4E3F4"/>
<path d="M141.979 148.59H91.7098C87.1827 148.59 83.5127 144.915 83.5127 140.38V117.933C84.8444 117.378 86.2088 116.888 87.6041 116.467V136.281C87.6041 140.816 91.2731 144.493 95.8001 144.493H140.887C141.316 145.832 141.681 147.199 141.979 148.59Z" fill="#C3D6EE"/>
<path d="M140.338 142.888H95.8006C91.2735 142.888 87.6045 139.211 87.6045 134.676V136.281V116.467C89.7881 115.807 92.0444 115.319 94.3592 115.014V124.288H104.234V114.85C106.332 115.056 108.387 115.413 110.385 115.91V124.288H120.261V119.723C122.43 120.888 124.486 122.233 126.413 123.74V124.288H127.096C128.637 125.545 130.088 126.905 131.44 128.361H126.413V138.252H136.288V134.653C137.916 137.226 139.278 139.983 140.338 142.888ZM110.385 128.361V138.252H120.261V128.361H110.385ZM94.3592 128.361V138.252H104.234V128.361H94.3592Z" fill="#EBEDEF"/>
<path d="M140.888 144.493H95.8006C91.2735 144.493 87.6045 140.816 87.6045 136.281V134.676C87.6045 139.211 91.2735 142.888 95.8006 142.888H140.338C140.531 143.418 140.714 143.954 140.888 144.493Z" fill="#D9D9D9"/>
<path d="M104.234 124.288H94.3584V115.014C96.2057 114.77 98.091 114.645 100.005 114.645C101.432 114.645 102.843 114.715 104.234 114.85V124.288Z" fill="#CBCBCB"/>
<path d="M120.26 124.288H110.385V115.91C113.864 116.776 117.174 118.066 120.26 119.723V124.288Z" fill="#CBCBCB"/>
<path d="M127.096 124.288H126.412V123.74C126.642 123.92 126.87 124.103 127.096 124.288Z" fill="#CBCBCB"/>
<path d="M104.234 128.361H94.3584V138.252H104.234V128.361Z" fill="#CBCBCB"/>
<path d="M120.26 128.361H110.385V138.252H120.26V128.361Z" fill="#CBCBCB"/>
<path d="M136.287 138.252H126.412V128.361H131.439C133.239 130.299 134.865 132.407 136.287 134.653V138.252Z" fill="#CBCBCB"/>
<path d="M138.16 154.572C138.16 178.322 118.941 197.574 95.2327 197.574C71.5251 197.574 52.3066 178.322 52.3066 154.572C52.3066 130.823 71.5251 111.571 95.2327 111.571C118.941 111.571 138.16 130.823 138.16 154.572Z" fill="#76A1D5"/>
<path d="M131.207 154.572C131.207 174.474 115.101 190.608 95.2323 190.608C75.3649 190.608 59.2588 174.474 59.2588 154.572C59.2588 134.67 75.3649 118.536 95.2323 118.536C115.101 118.536 131.207 134.67 131.207 154.572Z" fill="white"/>
<path d="M59.9232 155.667C59.9232 135.765 76.0293 119.632 95.8967 119.632C108.824 119.632 120.153 126.464 126.494 136.718C120.296 125.86 108.632 118.536 95.2508 118.536C75.3835 118.536 59.2773 134.67 59.2773 154.572C59.2773 161.526 61.2487 168.016 64.6542 173.522C61.6485 168.257 59.9232 162.166 59.9232 155.667Z" fill="#EAEAEB"/>
<path d="M95.2318 128.494C94.7408 128.494 94.3379 128.091 94.3379 127.599V121.626C94.3379 121.133 94.7408 120.729 95.2318 120.729C95.7239 120.729 96.1268 121.133 96.1268 121.626V127.599C96.1268 128.091 95.7239 128.494 95.2318 128.494Z" fill="#EAEAEB"/>
<path d="M82.5346 132.187C82.1082 132.432 81.5587 132.286 81.3137 131.858L78.3315 126.687C78.0865 126.26 78.2331 125.709 78.6596 125.463C79.085 125.216 79.6345 125.364 79.8816 125.79L82.8617 130.963C83.1077 131.389 82.9611 131.94 82.5346 132.187Z" fill="#EAEAEB"/>
<path d="M73.3811 141.744C73.1351 142.171 72.5856 142.318 72.1591 142.072L66.9965 139.086C66.57 138.839 66.4234 138.289 66.6684 137.862C66.9145 137.436 67.465 137.288 67.8904 137.534L73.0541 140.52C73.4795 140.767 73.6272 141.317 73.3811 141.744Z" fill="#EAEAEB"/>
<path d="M70.2248 154.606C70.2248 155.099 69.8219 155.501 69.3298 155.501H63.3686C62.8765 155.501 62.4736 155.099 62.4736 154.606C62.4736 154.113 62.8765 153.71 63.3686 153.71H69.3298C69.8219 153.71 70.2248 154.113 70.2248 154.606Z" fill="#EAEAEB"/>
<path d="M73.9101 167.326C74.1561 167.753 74.0085 168.303 73.5831 168.55L68.4194 171.536C67.9929 171.782 67.4435 171.635 67.1985 171.207C66.9524 170.781 67.099 170.231 67.5255 169.984L72.6892 166.998C73.1146 166.751 73.6641 166.898 73.9101 167.326Z" fill="#EAEAEB"/>
<path d="M83.4516 176.495C83.8781 176.742 84.0247 177.293 83.7787 177.719L80.7986 182.892C80.5515 183.318 80.002 183.466 79.5766 183.219C79.1501 182.973 79.0035 182.422 79.2485 181.995L82.2297 176.824C82.4757 176.396 83.0262 176.249 83.4516 176.495Z" fill="#EAEAEB"/>
<path d="M96.2904 179.658C96.7825 179.658 97.1854 180.061 97.1854 180.553V186.526C97.1854 187.019 96.7825 187.422 96.2904 187.422C95.7994 187.422 95.3965 187.019 95.3965 186.526V180.553C95.3965 180.061 95.7994 179.658 96.2904 179.658Z" fill="#EAEAEB"/>
<path d="M108.989 175.965C109.416 175.719 109.965 175.867 110.211 176.293L113.192 181.465C113.438 181.893 113.291 182.443 112.864 182.689C112.439 182.936 111.889 182.788 111.643 182.362L108.662 177.189C108.416 176.762 108.564 176.212 108.989 175.965Z" fill="#EAEAEB"/>
<path d="M118.142 166.407C118.388 165.981 118.939 165.833 119.364 166.08L124.528 169.066C124.953 169.313 125.101 169.863 124.855 170.29C124.609 170.716 124.059 170.864 123.633 170.618L118.47 167.632C118.044 167.385 117.897 166.835 118.142 166.407Z" fill="#EAEAEB"/>
<path d="M121.3 153.546C121.3 153.053 121.703 152.65 122.194 152.65H128.156C128.648 152.65 129.05 153.053 129.05 153.546C129.05 154.039 128.648 154.442 128.156 154.442H122.194C121.703 154.442 121.3 154.039 121.3 153.546Z" fill="#EAEAEB"/>
<path d="M117.613 140.826C117.367 140.399 117.515 139.849 117.941 139.602L123.104 136.616C123.53 136.37 124.08 136.518 124.326 136.945C124.572 137.371 124.424 137.921 123.999 138.168L118.835 141.154C118.41 141.401 117.859 141.253 117.613 140.826Z" fill="#EAEAEB"/>
<path d="M108.073 131.657C107.647 131.41 107.499 130.859 107.745 130.433L110.726 125.26C110.972 124.834 111.522 124.686 111.948 124.933C112.374 125.179 112.521 125.73 112.275 126.157L109.294 131.328C109.048 131.756 108.499 131.903 108.073 131.657Z" fill="#EAEAEB"/>
<path d="M95.9649 155.467H95.7568C94.8844 155.467 94.1719 154.752 94.1719 153.878V134.612C94.1719 133.738 94.8844 133.023 95.7568 133.023H95.9649C96.8362 133.023 97.5497 133.738 97.5497 134.612V153.878C97.5497 154.752 96.8362 155.467 95.9649 155.467Z" fill="#DD443E"/>
<path d="M93.9639 154.145C93.9639 153.01 94.8906 152.082 96.0234 152.082H108.76C109.893 152.082 110.819 153.01 110.819 154.145C110.819 155.28 109.893 156.207 108.76 156.207H96.0234C94.8906 156.207 93.9639 155.28 93.9639 154.145Z" fill="#DD443E"/>
<path d="M99.8356 154.176C99.8356 156.237 98.1677 157.909 96.1102 157.909C94.0517 157.909 92.3838 156.237 92.3838 154.176C92.3838 152.114 94.0517 150.443 96.1102 150.443C98.1677 150.443 99.8356 152.114 99.8356 154.176Z" fill="#2D4FA2"/>
<path d="M97.9955 154.202C97.9955 155.287 97.117 156.166 96.0334 156.166C94.9508 156.166 94.0723 155.287 94.0723 154.202C94.0723 153.117 94.9508 152.238 96.0334 152.238C97.117 152.238 97.9955 153.117 97.9955 154.202Z" fill="#76A1D5"/>
<path d="M437.835 439.824C437.835 446.992 411.736 452.801 379.54 452.801C347.344 452.801 321.245 446.992 321.245 439.824C321.245 432.658 347.344 426.848 379.54 426.848C411.736 426.848 437.835 432.658 437.835 439.824Z" fill="#E9E9E8"/>
<path d="M429.327 320.293L429.276 320.423L429.274 320.426L429.213 320.537L429.207 320.544L429.133 320.635L429.119 320.646L429.035 320.718L429.012 320.732L428.919 320.785L428.877 320.803L428.783 320.839L428.705 320.856L428.623 320.876L428.438 320.897L428.34 320.894L428.264 320.877L428.25 320.872L428.088 320.776C427.366 320.159 427.414 317.331 427.165 315.785C427.149 315.684 427.134 315.589 427.117 315.499L427.114 315.482L427.068 315.237L427.063 315.209L427.019 314.994L427.013 314.968L426.971 314.78L426.965 314.754L426.921 314.591L426.916 314.567L426.875 314.426L426.869 314.407L426.828 314.285L426.823 314.271L426.782 314.168L426.779 314.159L426.738 314.071L426.737 314.07L426.615 313.909L426.614 313.908L426.577 313.888H426.576L426.54 313.885L426.506 313.897H426.505L426.474 313.92L426.449 313.95C426.285 314.177 426.222 317.897 426.315 319.572C426.377 320.738 426.498 322.375 426.174 323.275L426.12 323.409L426.113 323.422L426.056 323.534L426.048 323.548L425.894 323.747L425.886 323.754L425.808 323.817L425.78 323.834L425.712 323.872L425.678 323.887L425.601 323.91L425.568 323.919L425.45 323.933L425.319 323.923L425.29 323.917L425.183 323.885L425.17 323.881L424.945 323.723L424.94 323.718L424.879 323.652L424.878 323.649C424.345 322.995 424.25 321.309 424.134 319.68L424.132 319.656L424.12 319.494L424.115 319.428L424.104 319.288L424.1 319.222L424.084 319.021C423.897 316.76 424.251 314.596 423.709 314.575C423.165 314.555 422.851 322.902 422.788 323.521C422.745 323.945 422.696 325.023 422.347 325.663L422.284 325.768L422.278 325.775L422.22 325.856L422.203 325.876L422.147 325.938L422.13 325.956L422.055 326.02L422.052 326.024L421.967 326.077L421.944 326.088L421.878 326.117L421.846 326.128L421.776 326.146L421.746 326.152L421.64 326.16L421.535 326.153L421.504 326.148L421.434 326.131L421.404 326.122L421.332 326.094L421.313 326.086L421.228 326.036L421.223 326.032L421.149 325.975L421.132 325.96L421.073 325.9L421.06 325.885L420.932 325.703H420.93C420.582 325.11 420.535 324.072 420.514 323.435C420.487 322.501 420.518 319.898 420.678 317.727C420.838 315.555 420.903 314.858 420.557 314.767L420.531 314.771L420.514 314.779C420.131 315.044 419.119 319.679 418.793 321.417C418.597 322.452 418.265 323.413 417.822 323.943C417.74 324.041 417.655 324.123 417.567 324.189L417.563 324.192L417.506 324.232L417.488 324.242L417.437 324.273L417.413 324.284L417.362 324.308L417.335 324.318L417.286 324.336L417.256 324.344L417.176 324.36L417.132 324.366L417.094 324.368H417.048L417.01 324.366L416.962 324.361L416.925 324.356L416.873 324.344L416.838 324.334L416.78 324.315L416.75 324.303L416.661 324.261L416.581 324.209L416.553 324.187L416.511 324.147L416.48 324.114L416.43 324.051C415.792 323.125 416.62 320.157 416.999 318.365C417.416 316.397 418.14 313.003 418.115 311.603C418.091 310.202 418.351 308.929 417.622 309.051C417.455 309.07 417.323 309.078 417.24 309.082C416.736 309.101 415.655 309.954 415.011 310.708C414.367 311.461 412.984 311.835 412.093 311.795C411.669 311.777 411.329 311.642 411.278 311.371L411.271 311.314V311.31L411.273 311.254L411.274 311.247L411.283 311.19L411.286 311.18L411.302 311.123L411.306 311.11L411.331 311.051L411.337 311.037L411.37 310.974L411.378 310.959L411.418 310.894L411.429 310.878L411.478 310.81L411.491 310.793L411.548 310.721L411.564 310.704L411.63 310.628L411.648 310.611L411.726 310.531L411.743 310.514L411.834 310.429L411.851 310.412L411.955 310.321L411.972 310.307L412.091 310.209L412.104 310.197L412.242 310.091L412.251 310.084L412.434 309.948C414.189 308.694 416.067 306.238 416.709 304.668C417.351 303.097 417.622 302.042 419.389 301.543C419.968 301.379 419.796 288.184 419.694 286.256C419.593 284.327 427.615 285.123 427.557 286.694C427.498 288.266 425.666 301.819 426.455 302.472C427.246 303.124 427.605 303.876 428.124 306.579C428.383 307.929 428.702 310.546 428.94 312.732C428.94 312.732 429.404 316.852 429.423 318.447C429.432 319.28 429.458 319.889 429.327 320.293Z" fill="#F4B799"/>
<path d="M391.602 215.074C391.602 215.074 411.772 211.274 420.283 235.729C427.512 256.503 430.893 259.452 430.25 270.293C429.607 281.135 427.858 300.438 427.858 300.438L418.066 298.731L415.974 259.456C415.95 259.019 415.779 258.609 415.483 258.287C411.723 254.212 386.042 225.768 391.602 215.074Z" fill="#F89747"/>
<path d="M374.191 444.262C373.391 446.254 371.999 447.687 369.823 447.952C364.848 448.549 341.38 445.836 340.158 439.971C340.059 439.483 339.988 439.027 339.969 438.6C339.656 433.886 343.675 432.68 348.144 433.159C353.027 433.687 360.257 432.56 360.257 432.56L374.83 435.127C375.296 438.23 375.23 441.706 374.191 444.262Z" fill="#DD443E"/>
<path d="M368.052 448.033C360.791 448.033 341.269 445.306 340.157 439.971C340.058 439.483 339.987 439.027 339.969 438.6C341.52 439.093 343.012 440.213 344.325 440.87C349.427 443.431 355.116 444.674 360.795 444.969C361.638 445.009 362.484 445.03 363.33 445.03C365.627 445.03 367.924 444.882 370.2 444.601C371.496 444.444 372.865 444.264 374.19 444.262C373.391 446.254 371.999 447.687 369.822 447.952C369.373 448.007 368.772 448.033 368.052 448.033Z" fill="#D53430"/>
<path d="M419.039 440.132C418.239 442.122 416.847 443.557 414.67 443.821C409.696 444.418 386.228 441.704 385.007 435.84C384.907 435.352 384.836 434.896 384.817 434.469C384.504 429.755 388.523 428.548 392.991 429.027C397.875 429.557 405.106 428.428 405.106 428.428L419.678 430.996C420.144 434.1 420.078 437.576 419.039 440.132Z" fill="#DD443E"/>
<path d="M412.9 443.901C405.638 443.901 386.117 441.174 385.007 435.84C384.908 435.352 384.837 434.896 384.817 434.469C386.368 434.963 387.862 436.082 389.174 436.738C394.275 439.299 399.965 440.542 405.643 440.837C406.489 440.878 407.337 440.898 408.184 440.898C410.48 440.898 412.774 440.75 415.049 440.47C416.345 440.313 417.714 440.132 419.04 440.132C418.239 442.122 416.847 443.557 414.671 443.821C414.222 443.874 413.621 443.901 412.9 443.901Z" fill="#D53430"/>
<path d="M420.641 431.099L403.341 428.801C405.291 416.346 397.684 382.7 394.055 370.337C392.502 365.028 389.3 350.521 386.149 335.699C384.232 326.698 382.338 317.578 380.851 310.323C380.306 307.671 379.814 305.275 379.393 303.218C378.439 298.557 377.855 295.664 377.855 295.664L407.346 301.425C407.346 301.425 407.684 305.019 408.262 310.609C409.981 327.475 413.763 362.445 416.469 371.457C420.059 383.453 420.641 431.099 420.641 431.099Z" fill="#24316C"/>
<path d="M398.863 302.313C398.863 302.313 398.591 306.234 397.582 311.484C396.07 319.392 392.902 330.308 386.524 335.374C386.399 335.476 386.273 335.579 386.149 335.699C377.622 343.472 377.601 378.211 377.601 378.211C377.601 378.211 378.673 426.7 374.973 435.947L359.033 432.66C359.033 432.66 357.306 371.143 356.725 364.108C356.238 358.208 356.341 324.36 357.286 309.981C357.463 307.243 357.674 305.218 357.918 304.214L379.393 303.218L398.863 302.313Z" fill="#2D4FA2"/>
<path d="M397.581 311.484C397.871 309.979 398.1 308.583 398.278 307.358C401.404 306.815 404.272 306.051 406.684 305.001C407.048 304.843 407.365 304.621 407.63 304.353C407.784 305.921 407.999 308.057 408.262 310.609C406.746 310.828 405.22 310.954 403.697 311.089C401.665 311.264 399.616 311.442 397.581 311.484Z" fill="#1E265A"/>
<path d="M396.344 311.502C394.816 311.502 393.29 311.418 391.777 311.193C390.207 310.962 388.667 310.593 387.098 310.395C386.054 310.265 385.003 310.217 383.949 310.217C382.918 310.217 381.884 310.263 380.851 310.323C380.509 310.343 380.177 310.371 379.834 310.392C376.446 310.613 373.063 310.884 369.664 310.956C368.347 310.985 366.834 311.048 365.263 311.048C362.547 311.048 359.654 310.86 357.286 309.981C357.371 308.656 357.465 307.499 357.566 306.544C357.923 306.758 358.328 306.904 358.764 306.959C363.221 307.509 372.626 308.517 382.447 308.517C384.656 308.517 386.887 308.466 389.085 308.348C392.266 308.173 395.383 307.861 398.279 307.358C398.1 308.583 397.872 309.979 397.582 311.484C397.17 311.496 396.756 311.502 396.344 311.502Z" fill="#23409A"/>
<path d="M374.556 202.122L375.358 226.16L393.585 229.974C393.585 229.974 390.091 204.003 394.257 192.535L374.556 202.122Z" fill="#F4B799"/>
<path d="M374.748 207.842L374.732 207.414H374.733L374.748 207.842Z" fill="white"/>
<path d="M374.794 209.201L374.748 207.842L374.733 207.414C374.804 207.392 386.061 203.936 389.121 198.185C389.121 198.185 385.926 209.022 374.794 209.201Z" fill="#EF9974"/>
<path d="M371.109 159.645C371.109 159.645 362.855 174.503 364.038 190.148C365.22 205.793 373.366 210.907 384.097 206.476C394.828 202.044 398.005 182.129 395.267 172.269C392.528 162.41 382.884 155.633 371.109 159.645Z" fill="#F4B799"/>
<path d="M281.985 185.437L282.03 185.308C282.049 185.015 282.215 184.732 282.594 184.434C283.083 184.05 283.497 184.023 283.892 184.224L284.007 183.993C283.587 183.239 283.577 182.609 284.386 181.974C284.906 181.564 285.352 181.531 285.778 181.736L286.021 181.554C285.819 180.974 285.941 180.46 286.606 179.936C287.572 179.177 288.276 179.667 289.058 180.63L289.191 180.629C289.566 180.642 288.458 179.389 286.714 176.463C284.941 173.494 282.547 170.233 284.126 169.206C285.361 168.402 287.295 171.2 289.244 174.276C290.613 176.439 292.927 180.078 293.972 181.502C294.805 182.639 295.413 184.206 295.96 184.459C296.239 184.152 296.472 183.94 296.601 183.841C297.109 183.451 297.142 181.705 297.544 180.522C298.124 178.821 299.069 177.561 300.05 177.312C301.112 177.027 301.875 177.091 301.171 179.321C301.137 179.432 301.101 179.545 301.059 179.665L301.058 179.669C301.014 179.792 300.975 179.921 300.937 180.049C300.906 180.152 300.875 180.256 300.846 180.36C300.145 182.9 300.057 186.317 300.496 188.221C300.975 190.305 301.463 191.593 300.009 193.394C299.53 193.987 309.298 207.449 310.805 209.36C312.312 211.271 304.289 215.632 303.207 213.97C302.126 212.307 293.343 197.688 292.055 197.593C290.767 197.498 289.851 196.985 287.351 194.581C286.116 193.393 281.362 187.6 281.985 185.437Z" fill="#F4B799"/>
<path d="M376.406 214.94L325.846 217.448L302.741 197.739L295.122 202.177C295.122 202.177 307.347 226.523 314.685 230.946C322.023 235.368 367.265 246.154 367.265 246.154L376.406 214.94Z" fill="#F89747"/>
<path d="M406.379 267.231C404.319 275.695 407.34 295.141 408.459 301.703C408.69 303.079 407.972 304.44 406.685 305.001C402.037 307.024 395.698 307.985 389.085 308.348C377.11 308.995 364.222 307.632 358.764 306.959C357.231 306.766 356.082 305.458 356.098 303.911C356.234 291.337 356.864 238.548 357.927 227.645C359.135 215.252 376.407 214.94 376.407 214.94C385.689 212.954 392.531 213.127 397.463 214.349C403.894 215.943 407.059 219.336 408.102 222.098C409.474 225.732 408.88 256.965 406.379 267.231Z" fill="#F89747"/>
<path d="M389.085 308.348C389.746 306.798 391.057 305.614 392.141 304.305C396.823 298.633 397.192 290.695 397.957 283.38C398.54 277.743 399.488 272.154 400.778 266.635C401.85 262.059 403.171 257.513 403.716 252.837C404.461 246.516 403.774 240.128 403.103 233.805C402.565 228.707 401.956 223.456 399.993 218.677C399.582 217.677 398.203 215.892 397.462 214.349C403.894 215.943 407.059 219.336 408.101 222.098C408.582 223.372 408.822 228.039 408.822 234.004C408.823 238.874 408.663 244.608 408.346 250.071C407.945 257.005 407.288 263.501 406.379 267.231C405.878 269.289 405.678 271.996 405.677 275.01C405.675 284.39 407.611 296.736 408.459 301.703C408.488 301.875 408.502 302.047 408.502 302.216C408.502 303.406 407.811 304.51 406.685 305.001C402.037 307.024 395.698 307.985 389.085 308.348Z" fill="#F58436"/>
<path d="M397.87 164.037C400.367 168.03 398.882 173.278 394.978 175.904C391.271 178.401 384.656 180.3 373.224 177.274C351.391 171.498 357.009 153.84 357.009 153.84C357.009 153.84 362.841 158.061 368.92 160.196C368.92 160.196 363.089 155.975 363.138 149.637C363.138 149.637 368.928 154.204 380.601 156.654C388.938 158.404 395.172 159.723 397.87 164.037Z" fill="#191D4C"/>
<path d="M397.871 164.037C397.871 164.037 411.935 176.158 396.907 195.686C381.881 215.215 359.031 155.986 397.871 164.037Z" fill="#191D4C"/>
<path d="M385.004 189.654C384.741 191.944 382.675 193.587 380.39 193.323C378.103 193.06 376.463 190.99 376.726 188.7C376.988 186.41 379.054 184.767 381.341 185.031C383.627 185.294 385.267 187.364 385.004 189.654Z" fill="#F4B799"/>
<path d="M107.225 430.179C107.225 434.878 90.1162 438.686 69.0104 438.686C47.9047 438.686 30.7949 434.878 30.7949 430.179C30.7949 425.481 47.9047 421.672 69.0104 421.672C90.1162 421.672 107.225 425.481 107.225 430.179Z" fill="#E9E9E8"/>
<path d="M14.9834 336.811C14.9834 336.811 27.561 374.291 58.014 379.085C58.014 379.085 67.7704 328.108 14.9834 336.811Z" fill="#319F8C"/>
<path d="M65.0237 412.499C64.8915 412.493 64.789 412.38 64.7951 412.247C65.9094 387.585 53.3022 368.841 42.5309 357.461C30.8514 345.119 18.7587 338.538 18.6378 338.473C18.5209 338.41 18.4778 338.265 18.5404 338.148C18.6039 338.03 18.7485 337.986 18.8654 338.051C18.9863 338.115 31.1466 344.734 42.8784 357.13C53.7143 368.579 66.3954 387.438 65.2749 412.269C65.2687 412.402 65.157 412.505 65.0237 412.499Z" fill="#19244F"/>
<path d="M22.6529 348.574C22.5453 348.569 22.451 348.491 22.4284 348.38C22.4028 348.25 22.4869 348.123 22.6171 348.097L30.7567 346.466C30.8869 346.439 31.013 346.525 31.0397 346.654C31.0653 346.784 30.9812 346.91 30.851 346.937L22.7114 348.569L22.6529 348.574Z" fill="#19244F"/>
<path d="M37.2678 352.116C37.1427 352.11 37.0412 352.007 37.0392 351.881L36.7901 339.708C36.788 339.575 36.8926 339.465 37.0248 339.463C37.1612 339.465 37.2668 339.565 37.2698 339.698L37.5179 351.87C37.521 352.003 37.4164 352.113 37.2832 352.116H37.2678Z" fill="#19244F"/>
<path d="M33.5751 361.389C33.4736 361.384 33.3814 361.315 33.3537 361.21C33.3199 361.082 33.3967 360.95 33.5239 360.917L43.5488 358.251C43.6769 358.217 43.8092 358.294 43.842 358.421C43.8768 358.55 43.8 358.681 43.6718 358.716L33.6479 361.381L33.5751 361.389Z" fill="#19244F"/>
<path d="M51.3423 367.941H51.3392C51.2069 367.934 51.1065 367.82 51.1136 367.687L51.8528 354.839C51.861 354.707 51.985 354.623 52.106 354.613C52.2393 354.621 52.3397 354.736 52.3325 354.868L51.5924 367.715C51.5852 367.846 51.4735 367.947 51.3423 367.941Z" fill="#19244F"/>
<path d="M54.3154 372.57L46.1849 372.201C46.0527 372.195 45.9502 372.083 45.9563 371.95C45.9625 371.818 46.0742 371.716 46.2065 371.721L54.3369 372.09C54.4692 372.096 54.5717 372.208 54.5655 372.34C54.5594 372.473 54.4476 372.576 54.3154 372.57Z" fill="#19244F"/>
<path d="M122.727 335.613C122.727 335.613 106.823 371.802 76.0625 373.822C76.0625 373.822 70.9409 322.172 122.727 335.613Z" fill="#319F8C"/>
<path d="M66.0697 406.466C66.2019 406.471 66.3137 406.369 66.3198 406.236C67.4342 381.573 81.6786 364.047 93.4319 353.686C106.177 342.453 118.813 336.991 118.939 336.938C119.061 336.885 119.117 336.745 119.065 336.623C119.012 336.5 118.872 336.443 118.751 336.496C118.624 336.55 105.917 342.042 93.1152 353.326C81.2921 363.748 66.9626 381.383 65.8411 406.214C65.8349 406.347 65.9374 406.46 66.0697 406.466Z" fill="#19244F"/>
<path d="M114.031 346.633C114.138 346.638 114.24 346.569 114.271 346.462C114.309 346.334 114.237 346.201 114.11 346.163L106.15 343.802C106.023 343.763 105.89 343.837 105.852 343.964C105.814 344.09 105.886 344.225 106.014 344.262L113.973 346.624L114.031 346.633Z" fill="#19244F"/>
<path d="M99.1556 348.839C99.2807 348.845 99.3904 348.752 99.4048 348.625L100.75 336.526C100.764 336.393 100.669 336.275 100.538 336.26C100.401 336.25 100.287 336.341 100.272 336.472L98.927 348.573C98.9137 348.705 99.008 348.823 99.1392 348.838L99.1556 348.839Z" fill="#19244F"/>
<path d="M101.997 358.41C102.1 358.414 102.197 358.352 102.234 358.251C102.279 358.126 102.215 357.989 102.09 357.944L92.3473 354.382C92.2223 354.337 92.0839 354.401 92.0398 354.525C91.9947 354.65 92.0592 354.788 92.1833 354.833L101.926 358.394L101.997 358.41Z" fill="#19244F"/>
<path d="M83.7111 363.328H83.7142C83.8465 363.332 83.9572 363.227 83.9623 363.095L84.3837 350.234C84.3878 350.101 84.2719 350.006 84.152 349.986C84.0187 349.981 83.908 350.085 83.9039 350.217L83.4825 363.079C83.4784 363.212 83.5799 363.322 83.7111 363.328Z" fill="#19244F"/>
<path d="M80.3343 367.668L88.4637 368.037C88.597 368.043 88.7088 367.94 88.7139 367.807C88.7211 367.675 88.6185 367.563 88.4853 367.557L80.3558 367.188C80.2236 367.182 80.1108 367.285 80.1047 367.417C80.0996 367.55 80.201 367.663 80.3343 367.668Z" fill="#19244F"/>
<path d="M49.734 303.567C49.734 303.567 35.0242 343.971 68.1221 367.409C68.1221 367.409 91.3633 326.559 49.734 303.567Z" fill="#3BBA88"/>
<path d="M69.2491 413.822L69.2337 413.821C69.1015 413.807 69.0062 413.688 69.0205 413.556C74.7808 360.52 51.3141 307.361 51.0763 306.829C51.023 306.709 51.0763 306.566 51.1973 306.513C51.3162 306.458 51.4597 306.512 51.514 306.633C51.7529 307.165 75.2719 360.444 69.4982 413.607C69.4849 413.735 69.3742 413.828 69.2491 413.822Z" fill="#19244F"/>
<path d="M59.0178 327.911L58.942 327.895C58.8179 327.846 58.7574 327.707 58.8056 327.583L63.264 316.103C63.3122 315.981 63.4516 315.921 63.5736 315.968C63.6976 316.016 63.7591 316.155 63.711 316.278L59.2526 327.757C59.2136 327.856 59.1183 327.914 59.0178 327.911Z" fill="#19244F"/>
<path d="M61.556 337.734L61.5099 337.727L49.9759 334.911C49.8478 334.88 49.7689 334.749 49.7996 334.62C49.8314 334.491 49.9585 334.411 50.0908 334.443L61.6237 337.26C61.7529 337.291 61.8308 337.42 61.799 337.55C61.7723 337.664 61.6688 337.739 61.556 337.734Z" fill="#19244F"/>
<path d="M64.9365 350.154L64.7899 350.096C64.6894 350.01 64.6792 349.858 64.7653 349.757L71.9578 341.39C72.0449 341.289 72.1966 341.279 72.2961 341.364C72.3975 341.45 72.4078 341.603 72.3217 341.703L65.1292 350.071L64.9365 350.154Z" fill="#19244F"/>
<path d="M66.6898 359.621L66.5975 359.598L60.1873 356.506C60.0683 356.449 60.0181 356.306 60.0755 356.187C60.1329 356.066 60.2754 356.016 60.3954 356.074L66.8056 359.165C66.9245 359.222 66.9748 359.365 66.9174 359.486C66.8743 359.575 66.7831 359.625 66.6898 359.621Z" fill="#19244F"/>
<path d="M56.053 319.296L55.9597 319.271L49.5494 316.181C49.4305 316.124 49.3792 315.979 49.4367 315.86C49.4951 315.74 49.6366 315.691 49.7575 315.748L56.1668 318.839C56.2867 318.897 56.3369 319.04 56.2795 319.16C56.2365 319.25 56.1452 319.3 56.053 319.296Z" fill="#19244F"/>
<path d="M82.386 402.687L82.1502 404.5L82.0169 405.532L78.5468 432.312H56.013L52.5439 405.532L52.4086 404.5L52.1738 402.687H82.386Z" fill="#FBAE1D"/>
<path d="M86.001 393.947H48.7676V404.499H86.001V393.947Z" fill="#FBAE1D"/>
<path d="M82.0166 405.532H52.5435L52.4082 404.5H82.1498L82.0166 405.532Z" fill="#F7921D"/>
</svg>
