<svg width="25" height="26" viewBox="0 0 25 26" fill="none" xmlns="http://www.w3.org/2000/svg">
<path d="M15.0174 25H9.98256M20.0523 8.57895C20.0523 6.56889 19.2566 4.64115 17.8403 3.21982C16.424 1.79849 14.503 1 12.5 1C10.497 1 8.57604 1.79849 7.1597 3.21982C5.74337 4.64115 4.94768 6.56889 4.94768 8.57895C4.94768 12.4823 3.96647 15.1549 2.87037 16.9226C1.94579 18.4137 1.4835 19.1593 1.50045 19.3673C1.51922 19.5976 1.56784 19.6854 1.75276 19.823C1.91977 19.9474 2.67265 19.9474 4.17841 19.9474H20.8216C22.3273 19.9474 23.0802 19.9474 23.2472 19.823C23.4322 19.6854 23.4808 19.5976 23.4995 19.3673C23.5165 19.1593 23.0542 18.4137 22.1296 16.9226C21.0335 15.1549 20.0523 12.4823 20.0523 8.57895Z" stroke="#AEB3C9" stroke-width="2" stroke-linecap="round" stroke-linejoin="round"/>
</svg>
