<svg width="50" height="49" viewBox="0 0 50 49" fill="none" xmlns="http://www.w3.org/2000/svg">
<rect x="0.5" width="49" height="49" rx="24.5" fill="#7FB2FF"/>
<path d="M17.5368 33.3253C16.9522 33.5826 16.6598 33.7112 16.4804 33.6547C16.3249 33.6057 16.203 33.484 16.1539 33.3285C16.0972 33.1492 16.2255 32.8567 16.482 32.2717L23.7634 15.6702C23.995 15.1421 24.1108 14.8781 24.2727 14.7973C24.4133 14.7271 24.5787 14.7271 24.7193 14.7973C24.8812 14.8781 24.997 15.1421 25.2287 15.6702L32.51 32.2717C32.7666 32.8567 32.8949 33.1492 32.8382 33.3285C32.789 33.484 32.6671 33.6057 32.5116 33.6547C32.3322 33.7112 32.0399 33.5826 31.4552 33.3253L24.8182 30.405C24.6995 30.3528 24.6402 30.3267 24.5785 30.3164C24.5239 30.3072 24.4681 30.3072 24.4135 30.3164C24.3519 30.3267 24.2925 30.3528 24.1738 30.405L17.5368 33.3253Z" fill="white"/>
</svg>
