<svg width="18" height="20" viewBox="0 0 18 20" fill="none" xmlns="http://www.w3.org/2000/svg">
<path d="M2.03685 19.3253C1.45216 19.5826 1.15982 19.7112 0.980421 19.6547C0.824902 19.6057 0.703032 19.484 0.653873 19.3285C0.597167 19.1492 0.725454 18.8567 0.982028 18.2717L8.26339 1.6702C8.49501 1.14212 8.61081 0.878085 8.77271 0.797268C8.91331 0.727083 9.07873 0.727083 9.21934 0.797268C9.38124 0.878085 9.49704 1.14212 9.72865 1.6702L17.01 18.2717C17.2666 18.8567 17.3949 19.1492 17.3382 19.3285C17.289 19.484 17.1671 19.6057 17.0116 19.6547C16.8322 19.7112 16.5399 19.5826 15.9552 19.3253L9.31821 16.405C9.19953 16.3528 9.14019 16.3267 9.07855 16.3164C9.02391 16.3072 8.96814 16.3072 8.9135 16.3164C8.85186 16.3267 8.79252 16.3528 8.67383 16.405L2.03685 19.3253Z" fill="white"/>
</svg>
