<svg width="21" height="21" viewBox="0 0 21 21" fill="none" xmlns="http://www.w3.org/2000/svg">
<path d="M7 12.25C4.375 12.25 3.5 13.125 3.5 13.125V2.625C3.5 2.625 4.375 1.75 7 1.75C9.625 1.75 11.375 3.5 14 3.5C16.625 3.5 17.5 2.625 17.5 2.625V13.125C17.5 13.125 16.625 14 14 14C11.375 14 9.625 12.25 7 12.25Z" fill="#F20009"/>
<path d="M3.5 13.125C3.5 13.125 4.375 12.25 7 12.25C9.625 12.25 11.375 14 14 14C16.625 14 17.5 13.125 17.5 13.125V2.625C17.5 2.625 16.625 3.5 14 3.5C11.375 3.5 9.625 1.75 7 1.75C4.375 1.75 3.5 2.625 3.5 2.625L3.5 19.25" stroke="#F20009" stroke-width="2" stroke-linecap="round" stroke-linejoin="round"/>
</svg>
