<svg width="22" height="22" viewBox="0 0 22 22" fill="none" xmlns="http://www.w3.org/2000/svg">
<path d="M4.58331 13.0958C2.88623 13.8445 1.83331 14.8877 1.83331 16.0416C1.83331 18.3198 5.93737 20.1666 11 20.1666C16.0626 20.1666 20.1666 18.3198 20.1666 16.0416C20.1666 14.8877 19.1137 13.8445 17.4166 13.0958M16.5 7.33331C16.5 11.0584 12.375 12.8333 11 15.5833C9.62498 12.8333 5.49998 11.0584 5.49998 7.33331C5.49998 4.29575 7.96241 1.83331 11 1.83331C14.0375 1.83331 16.5 4.29575 16.5 7.33331ZM11.9166 7.33331C11.9166 7.83957 11.5062 8.24998 11 8.24998C10.4937 8.24998 10.0833 7.83957 10.0833 7.33331C10.0833 6.82705 10.4937 6.41665 11 6.41665C11.5062 6.41665 11.9166 6.82705 11.9166 7.33331Z" stroke="white" stroke-width="2" stroke-linecap="round" stroke-linejoin="round"/>
</svg>
