<svg width="26" height="26" viewBox="0 0 26 26" fill="none" xmlns="http://www.w3.org/2000/svg">
<path d="M9.72625 9.49992C9.99074 8.7202 10.5128 8.06271 11.1999 7.64391C11.8871 7.2251 12.695 7.07201 13.4806 7.21175C14.2661 7.35149 14.9787 7.77503 15.492 8.40737C16.0053 9.03971 16.2862 9.84003 16.285 10.6666C16.285 12.9999 12.91 14.1666 12.91 14.1666M13 18.8333H13.0113M24.25 12.9999C24.25 19.4432 19.2132 24.6666 13 24.6666C6.7868 24.6666 1.75 19.4432 1.75 12.9999C1.75 6.5566 6.7868 1.33325 13 1.33325C19.2132 1.33325 24.25 6.5566 24.25 12.9999Z" stroke="#AEB3C9" stroke-width="2" stroke-linecap="round" stroke-linejoin="round"/>
</svg>
