<svg width="26" height="22" viewBox="0 0 26 22" fill="none" xmlns="http://www.w3.org/2000/svg">
<path d="M21.84 0H4.16C2.70386 0 1.9758 0 1.41962 0.299732C0.930403 0.563384 0.532654 0.98408 0.283383 1.50153C0 2.08978 0 2.85986 0 4.4V6.1875C2.5129 6.1875 4.55 8.34213 4.55 11C4.55 13.6579 2.5129 15.8125 0 15.8125V17.6C0 19.1401 0 19.9102 0.283383 20.4985C0.532654 21.0159 0.930403 21.4366 1.41962 21.7003C1.9758 22 2.70386 22 4.16 22H21.84C23.2961 22 24.0242 22 24.5804 21.7003C25.0696 21.4366 25.4673 21.0159 25.7166 20.4985C26 19.9102 26 19.1401 26 17.6V15.8125C23.4871 15.8125 21.45 13.6579 21.45 11C21.45 8.34213 23.4871 6.1875 26 6.1875V4.4C26 2.85986 26 2.08978 25.7166 1.50153C25.4673 0.98408 25.0696 0.563384 24.5804 0.299732C24.0242 0 23.2961 0 21.84 0Z" fill="#182776"/>
</svg>
