<svg width="25" height="21" viewBox="0 0 25 21" fill="none" xmlns="http://www.w3.org/2000/svg">
<path d="M10.2 5.75V4.5625M10.2 11.0938V9.90625M10.2 16.4375V15.25M4.68 1H20.32C21.6081 1 22.2522 1 22.7442 1.25886C23.177 1.48656 23.5288 1.84989 23.7493 2.29677C24 2.80481 24 3.46988 24 4.8V6.34375C21.7771 6.34375 19.975 8.20457 19.975 10.5C19.975 12.7954 21.7771 14.6562 24 14.6562V16.2C24 17.5301 24 18.1952 23.7493 18.7032C23.5288 19.1501 23.177 19.5134 22.7442 19.7411C22.2522 20 21.6081 20 20.32 20H4.68C3.39188 20 2.74782 20 2.25582 19.7411C1.82305 19.5134 1.47119 19.1501 1.25069 18.7032C1 18.1952 1 17.5301 1 16.2V14.6562C3.22295 14.6562 5.025 12.7954 5.025 10.5C5.025 8.20457 3.22295 6.34375 1 6.34375V4.8C1 3.46988 1 2.80481 1.25069 2.29677C1.47119 1.84989 1.82305 1.48656 2.25582 1.25886C2.74782 1 3.39188 1 4.68 1Z" stroke="#AEB3C9" stroke-width="2" stroke-linecap="round" stroke-linejoin="round"/>
</svg>
