<svg width="34" height="34" viewBox="0 0 34 34" fill="none" xmlns="http://www.w3.org/2000/svg">
<path d="M13.4583 31.1666H20.5416M11.3333 2.83331H22.6666M17 7.08331V2.83331M5.66663 17H28.3333M24.0833 26.9166L26.2083 31.1666M9.91663 26.9166L7.79163 31.1666M12.0416 21.9583H12.0558M21.9583 21.9583H21.9725M12.4666 26.9166H21.5333C23.9135 26.9166 25.1036 26.9166 26.0128 26.4534C26.8124 26.046 27.4626 25.3958 27.8701 24.5961C28.3333 23.687 28.3333 22.4969 28.3333 20.1166V13.8833C28.3333 11.5031 28.3333 10.313 27.8701 9.40385C27.4626 8.60417 26.8124 7.954 26.0128 7.54654C25.1036 7.08331 23.9135 7.08331 21.5333 7.08331H12.4666C10.0864 7.08331 8.89629 7.08331 7.98717 7.54654C7.18748 7.954 6.53731 8.60417 6.12985 9.40385C5.66663 10.313 5.66663 11.5031 5.66663 13.8833V20.1166C5.66663 22.4969 5.66663 23.687 6.12985 24.5961C6.53731 25.3958 7.18748 26.046 7.98717 26.4534C8.89629 26.9166 10.0864 26.9166 12.4666 26.9166ZM12.75 21.9583C12.75 22.3495 12.4328 22.6666 12.0416 22.6666C11.6504 22.6666 11.3333 22.3495 11.3333 21.9583C11.3333 21.5671 11.6504 21.25 12.0416 21.25C12.4328 21.25 12.75 21.5671 12.75 21.9583ZM22.6666 21.9583C22.6666 22.3495 22.3495 22.6666 21.9583 22.6666C21.5671 22.6666 21.25 22.3495 21.25 21.9583C21.25 21.5671 21.5671 21.25 21.9583 21.25C22.3495 21.25 22.6666 21.5671 22.6666 21.9583Z" stroke="black" stroke-width="2" stroke-linecap="round" stroke-linejoin="round"/>
</svg>
