<svg width="20" height="23" viewBox="0 0 20 23" fill="none" xmlns="http://www.w3.org/2000/svg">
<path d="M12.25 1.28301V5.62008C12.25 6.20813 12.25 6.50216 12.3726 6.72676C12.4805 6.92433 12.6526 7.08496 12.8643 7.18563C13.1049 7.30007 13.4199 7.30007 14.05 7.30007H18.6969M14.5 12.55H5.5M14.5 16.75H5.5M7.75 8.35H5.5M12.25 1H6.4C4.50982 1 3.56473 1 2.84278 1.34333C2.20774 1.64533 1.69143 2.12722 1.36785 2.71993C1 3.39375 1 4.27583 1 6.04V16.96C1 18.7242 1 19.6062 1.36785 20.2801C1.69143 20.8728 2.20774 21.3547 2.84278 21.6567C3.56473 22 4.50982 22 6.4 22H13.6C15.4902 22 16.4353 22 17.1572 21.6567C17.7923 21.3547 18.3086 20.8728 18.6321 20.2801C19 19.6062 19 18.7242 19 16.96V7.3L12.25 1Z" stroke="#AEB3C9" stroke-width="2" stroke-linecap="round" stroke-linejoin="round"/>
</svg>
