<svg width="33" height="28" viewBox="0 0 33 28" fill="none" xmlns="http://www.w3.org/2000/svg">
<g filter="url(#filter0_d_1627_7897)">
<path d="M11.9813 19.75C21.0357 19.75 25.9894 12.2467 25.9894 5.74186C25.9894 5.53092 25.9847 5.3153 25.9754 5.10436C26.939 4.40746 27.7706 3.54425 28.4312 2.5553C27.5337 2.9546 26.5808 3.21538 25.6051 3.32874C26.6324 2.71291 27.4017 1.74547 27.7702 0.605767C26.8037 1.17856 25.7467 1.58261 24.6446 1.80061C23.902 1.01156 22.9201 0.489116 21.8508 0.314051C20.7815 0.138986 19.6843 0.32105 18.7289 0.832096C17.7734 1.34314 17.013 2.15471 16.565 3.14131C16.117 4.12792 16.0066 5.23462 16.2507 6.2903C14.2936 6.19209 12.3791 5.6837 10.6311 4.7981C8.88318 3.91249 7.34085 2.66944 6.10412 1.14952C5.47555 2.23324 5.28321 3.51565 5.56618 4.73609C5.84916 5.95654 6.58622 7.02345 7.62756 7.71999C6.84578 7.69517 6.08113 7.48468 5.39678 7.10592V7.16686C5.39608 8.30415 5.78925 9.40659 6.50946 10.2868C7.22967 11.167 8.23248 11.7706 9.3474 11.995C8.62321 12.1931 7.86313 12.222 7.126 12.0794C7.44061 13.0574 8.05273 13.9129 8.87692 14.5263C9.70112 15.1398 10.6963 15.4806 11.7235 15.5012C9.97958 16.8711 7.82533 17.6141 5.60771 17.6106C5.21444 17.61 4.82155 17.5859 4.43115 17.5384C6.68401 18.9837 9.30468 19.7514 11.9813 19.75Z" fill="#617BF4"/>
</g>
<defs>
<filter id="filter0_d_1627_7897" x="0.431152" y="0.249268" width="32" height="27.5007" filterUnits="userSpaceOnUse" color-interpolation-filters="sRGB">
<feFlood flood-opacity="0" result="BackgroundImageFix"/>
<feColorMatrix in="SourceAlpha" type="matrix" values="0 0 0 0 0 0 0 0 0 0 0 0 0 0 0 0 0 0 127 0" result="hardAlpha"/>
<feOffset dy="4"/>
<feGaussianBlur stdDeviation="2"/>
<feComposite in2="hardAlpha" operator="out"/>
<feColorMatrix type="matrix" values="0 0 0 0 0 0 0 0 0 0 0 0 0 0 0 0 0 0 0.25 0"/>
<feBlend mode="normal" in2="BackgroundImageFix" result="effect1_dropShadow_1627_7897"/>
<feBlend mode="normal" in="SourceGraphic" in2="effect1_dropShadow_1627_7897" result="shape"/>
</filter>
</defs>
</svg>
