<svg width="49" height="49" viewBox="0 0 49 49" fill="none" xmlns="http://www.w3.org/2000/svg">
<rect width="49" height="49" rx="24.5" fill="#E7F0FD"/>
<path d="M26 14.2695V18.4001C26 18.9601 26 19.2401 26.109 19.4541C26.2049 19.6422 26.3578 19.7952 26.546 19.8911C26.7599 20.0001 27.0399 20.0001 27.6 20.0001H31.7305M28 25H20M28 29H20M22 21H20M26 14H20.8C19.1198 14 18.2798 14 17.638 14.327C17.0735 14.6146 16.6146 15.0735 16.327 15.638C16 16.2798 16 17.1198 16 18.8V29.2C16 30.8802 16 31.7202 16.327 32.362C16.6146 32.9265 17.0735 33.3854 17.638 33.673C18.2798 34 19.1198 34 20.8 34H27.2C28.8802 34 29.7202 34 30.362 33.673C30.9265 33.3854 31.3854 32.9265 31.673 32.362C32 31.7202 32 30.8802 32 29.2V20L26 14Z" stroke="#0066FF" stroke-width="2" stroke-linecap="round" stroke-linejoin="round"/>
</svg>
